<?xml version="1.0" encoding="utf-8"?>
<!-- Generator: Adobe Illustrator 19.0.0, SVG Export Plug-In . SVG Version: 6.00 Build 0)  -->
<svg version="1.1" id="Layer_1" xmlns="http://www.w3.org/2000/svg" xmlns:xlink="http://www.w3.org/1999/xlink" x="0px" y="0px"
	 viewBox="0 0 512 512" style="enable-background:new 0 0 512 512;" xml:space="preserve">
<style type="text/css">
	.st0{fill:#FFFFFF;}
</style>
<g>
	<path class="st0" d="M256.8,508c-74.8,0-149.7,0-224.5,0c-15.5,0-26.8-10.8-26.7-25.3c0.1-13.3,10.7-24.4,24-24.9
		c4.4-0.2,8.7-0.3,13.1,0c3.8,0.3,4.9-0.7,4.9-4.7c-0.2-35.8-0.1-71.5-0.1-107.3c0-9.1-0.1-18.1,0.1-27.2c0.1-2.8-0.5-4.1-3.5-5.1
		c-18.9-6-30.2-21.3-30-41.1c0.2-24.1-3.4-16,14.4-32.2c19.2-17.5,38.8-34.6,58.3-51.7c2.1-1.8,2.7-3.7,2.7-6.3
		c-0.1-19.2-0.1-38.4,0-57.6c0-16.6,10.5-27,27.2-27c16.2,0,32.4-0.1,48.7,0.1c3.6,0,4.6-0.9,4.8-4.6c0.8-12.5,1.9-25,3.1-37.5
		c0.5-5.3,3.6-8.1,9-8.2c6.8-0.1,13.6-0.3,20.4,0.1c3.6,0.2,4.4-1.1,4.2-4.4c-0.3-4.2-0.2-8.4,0-12.6c0.3-9.9,4.7-17.4,13.5-22
		c8.6-4.6,17.2-4.1,25.3,1.2c2.4,1.6,3.7,1.7,6.2,0.1c8.2-5.5,17-5.8,25.7-1.1c8.5,4.7,12.7,12.1,13,21.8c0.1,4.4,0.3,8.7,0,13.1
		c-0.3,3.5,1.1,4,4.1,3.9c11.5-0.2,23-0.1,34.5-0.1c8.8,0,11.1,2.1,11.8,10.8c1,12,2.2,24,2.9,36c0.2,3.2,1.5,3.6,4.2,3.5
		c16.4-0.1,32.8-0.1,49.2,0c17,0,27.2,10.4,27.3,27.4c0,18.8,0.1,37.7-0.1,56.5c0,3,0.7,5.1,3,7.2c22.5,19.8,44.9,39.8,67.4,59.7
		c3.6,3.1,5.4,6.6,5.1,11.4c-0.5,6.9,0.6,14-0.8,20.9c-3.3,16.4-12.9,27.5-28.8,32.7c-3.3,1.1-4,2.5-4,5.8c0.1,44.7,0.1,89.3,0,134
		c0,3.9,0.9,5,4.8,4.8c5.4-0.3,10.9-0.5,16.2,0.3c13.1,2.1,22.1,14,20.9,27.1c-1.2,12.7-11.9,22.6-25.1,22.7
		c-20.9,0.1-41.9,0-62.8,0C365.6,508,311.2,508,256.8,508z M373.7,457.7c23.9,0,47.8,0,71.7,0c2.5,0,4,0,4-3.4
		c-0.1-45.5-0.1-91.1,0-136.6c0-2.7-1-3.5-3.3-4.1c-7.8-2.1-14.4-6.3-19.6-12.4c-1.9-2.3-2.7-2-4.7,0c-18.1,18.9-44.1,18.9-62.3-0.1
		c-2-2.1-2.7-2-4.7,0.1c-18.1,18.9-44.1,18.9-62.3,0c-2-2.1-2.7-2-4.7,0c-18.2,18.9-44.1,18.9-62.3,0c-2-2.1-2.7-2-4.7,0
		c-18.2,18.9-44.2,18.9-62.3,0c-2-2.1-2.7-2.1-4.7,0c-18.2,18.9-44.2,18.9-62.3,0c-2-2-2.8-2.2-4.7,0c-5,5.8-11.2,10.1-18.6,12
		c-3.8,0.9-4.3,2.7-4.3,6.1c0.1,44.5,0.1,89,0,133.5c0,4.2,1.2,5,5.1,5c46.9-0.1,93.9-0.2,140.8,0c4.2,0,5-1.2,5-5.1
		c-0.2-36.6-0.1-73.3-0.1-109.9c0-7.8,2.8-10.7,10.7-10.7c20.4,0,40.8,0,61.2,0c9.3,0,11.8,2.5,11.8,11.7c0,36.5,0.1,72.9-0.1,109.4
		c0,3.6,0.8,4.6,4.5,4.6C326.6,457.7,350.2,457.7,373.7,457.7z M256.3,181.4c48.8,0,97.7,0,146.5,0.1c3.2,0,4.9-0.1,4.8-4.3
		c-0.3-17.8-0.1-35.6-0.1-53.4c0-6.2-3.2-9.4-9.3-9.4c-16.4-0.1-32.8,0-49.2-0.1c-2.8,0-3.5,0.8-3.3,3.5c1.1,11.4,2,22.9,3,34.4
		c0.8,9.2-2.1,12.4-11.4,12.4c-53.5,0-107.1,0-160.6,0c-10,0-12.7-3.1-11.7-13.1c1-10.9,1.8-21.9,2.9-32.8c0.3-3.1-0.1-4.5-3.9-4.5
		c-15.9,0.2-31.7,0.1-47.6,0.1c-7.4,0-10.3,3-10.3,10.6c0,17.3,0.2,34.5-0.1,51.8c-0.1,4.2,1.3,4.7,5,4.7
		C159.3,181.4,207.8,181.4,256.3,181.4z M256.7,474.5c-73.8,0-147.5,0-221.3,0c-1.6,0-3.1-0.1-4.7,0c-5,0.3-8.4,3.6-8.4,8.2
		c-0.1,4.6,3.3,8.1,8.2,8.5c1.2,0.1,2.4,0,3.7,0c148.4,0,296.8,0,445.2,0c1.4,0,2.8,0.1,4.2-0.1c4.6-0.5,7.7-4.1,7.7-8.4
		c-0.1-4.4-3.3-7.7-7.9-8.2c-1.6-0.1-3.1-0.1-4.7-0.1C404.6,474.5,330.7,474.5,256.7,474.5z M231.5,147.9c15,0,30-0.1,45,0.1
		c3.6,0.1,4.7-0.7,4.4-4.5c-2-22.6-3.7-45.1-5.8-67.7c-0.3-3.7,1.1-9.1-1.6-10.9c-2.8-1.9-7.7-0.4-11.7-0.8
		c-3.9-0.4-5.3,0.7-5.2,4.9c0.3,11.9,0.1,11.7-11.6,12c-3.9,0.1-5.3-0.7-5.2-5c0.3-11.9,0.1-11.8-12.1-12c-3.5,0-4.9,0.6-4.6,4.5
		c0.3,3.9,1.4,9.3-0.6,11.5c-2.4,2.6-7.9,0.4-12,0.9c-3.1,0.3-4.2-0.5-4.2-3.9c0.1-4.2,2.1-10.1-0.9-12.4c-2.8-2.1-8.4-0.5-12.7-0.6
		c-0.2,0-0.4,0-0.5,0c-2.4-0.3-3.3,0.5-3.5,3.1c-2,25.2-4,50.4-6.3,75.5c-0.4,4.6,1,5.3,5.2,5.2
		C202.2,147.7,216.9,147.9,231.5,147.9z M281.9,403.7c0-16.4-0.2-32.8,0.1-49.2c0.1-5-1.5-5.8-6-5.7c-12.9,0.3-25.8,0.3-38.7,0
		c-4.3-0.1-5.8,0.6-5.8,5.5c0.3,32.8,0.3,65.6,0,98.4c0,4.6,1.3,5.3,5.5,5.2c13.3-0.3,26.5-0.3,39.8,0c4.6,0.1,5.3-1.4,5.2-5.5
		C281.7,436.2,281.9,419.9,281.9,403.7z M314.4,147.9c4,0,8.1-0.3,12,0.1c4.4,0.5,5-1.4,4.7-5.2c-2.2-25.2-4.3-50.3-6.3-75.5
		c-0.2-3.1-1.7-3.2-4-3.2c-8.4,0.1-16.7,0.3-25.1-0.1c-4.3-0.2-4.8,1.3-4.4,5c2.2,25.2,4.3,50.3,6.3,75.5c0.2,2.8,1.1,3.6,3.7,3.4
		C305.6,147.8,310,147.9,314.4,147.9z M231.6,222.7c0,7.5,0.1,15-0.1,22.5c-0.1,2.5,0.7,3.2,3.2,3.2c14.6-0.1,29.3-0.1,43.9,0
		c2.5,0,3.2-0.7,3.2-3.2c-0.1-14.6-0.1-29.3,0-43.9c0-2.5-0.7-3.2-3.2-3.2c-14.6,0.1-29.3,0.1-43.9,0c-2.5,0-3.3,0.7-3.2,3.2
		C231.7,208.4,231.6,215.6,231.6,222.7z M214.9,223.3c0-7.3-0.1-14.6,0.1-22c0.1-2.5-0.6-3.3-3.2-3.2c-12.2,0.1-24.4,0.1-36.6,0
		c-2.4,0-3.2,0.6-3.5,3.1c-1.8,14.9-3.7,29.7-5.7,44.6c-0.4,2.8,1,2.7,2.9,2.7c14.3,0,28.6-0.1,42.9,0c2.5,0,3.3-0.7,3.2-3.2
		C214.8,237.9,214.9,230.6,214.9,223.3z M347.8,248.4c-2-16-4.1-31.6-5.9-47.1c-0.3-2.3-0.8-3.2-3.4-3.2c-12.2,0.2-24.4,0.1-36.6,0
		c-2.4,0-3.3,0.4-3.3,3.1c0.1,14.6,0.1,29.3,0,43.9c0,2.4,0.4,3.3,3.1,3.3C316.8,248.3,332,248.4,347.8,248.4z M104.4,248.4
		c14.5,0,28.1-0.1,41.6,0.1c2.8,0,2.9-1.3,3.2-3.4c1.8-14.7,3.7-29.4,5.6-44.1c0.2-1.8,0.4-3-2.1-2.9c-5.1,0.1-10.1,0.1-15.2,0
		c-1.7,0-2.4,0.9-3.2,2.1C124.6,216,114.8,231.8,104.4,248.4z M408.1,248.4c0.1-0.4,0.4-0.9,0.3-1c-9.8-15.8-19.7-31.6-29.5-47.4
		c-0.8-1.4-1.8-1.8-3.4-1.8c-4.9,0.1-9.8,0.1-14.6,0c-2.2-0.1-2.5,0.7-2.3,2.8c2,14.7,3.9,29.4,5.6,44.1c0.3,3,1.4,3.5,4.2,3.5
		C381.6,248.3,394.8,248.4,408.1,248.4z M56.2,265.1c-7.3,0-14.7,0.2-22-0.1c-3-0.1-4,0.9-3.7,3.8c0.2,1.7,0,3.5,0.1,5.2
		c0.4,14.2,12.3,25.2,26.5,24.5c15.4-0.7,27.9-17.6,23.8-32c-0.6-2.2-2.1-1.5-3.2-1.5C70.5,265.1,63.4,265.1,56.2,265.1z
		 M122.8,265.1c-7.3,0-14.7,0.1-22-0.1c-2.4,0-3.5,0.5-3.3,3.1c0.2,1.9,0,3.8,0.1,5.8c0.4,14.2,12.2,25.2,26.4,24.6
		c15.4-0.7,27.7-17,23.9-31.8c-0.6-2.2-1.9-1.6-3.1-1.6C137.5,265.1,130.1,265.1,122.8,265.1z M190.3,265.1c-7.5,0-15,0.1-22.5-0.1
		c-2.5-0.1-3.4,0.7-3.2,3.2c0.2,1.9,0,3.8,0.1,5.8c0.4,14.2,12.2,25.2,26.4,24.5c15.4-0.7,27.8-17.4,23.8-31.9
		c-0.6-2.2-2-1.5-3.2-1.5C204.6,265.1,197.4,265.1,190.3,265.1z M257,265.1c-5.6,0-11.2,0-16.7,0c-8.9,0-8.9,0-8.6,9.2
		c0.6,16.3,16.1,27.6,31.8,23.3c12.4-3.4,18.8-13.8,18.5-29.2c-0.1-2.8-0.9-3.5-3.5-3.4C271.3,265.2,264.1,265.1,257,265.1z
		 M324.2,265.1c-6.1,0-12.2,0-18.3,0c-7.3,0-7.3,0-7.3,7.4c0.1,14.6,10.6,25.8,24.4,26.1c16.4,0.4,28.7-14.6,25.9-31.5
		c-0.4-2.6-1.9-2-3.3-2C338.5,265.1,331.3,265.1,324.2,265.1z M390.3,265.1c-7.2,0-14.3,0.1-21.5-0.1c-2.5-0.1-3.5,0.6-3.2,3.2
		c0.2,2.1,0,4.2,0.1,6.3c0.5,13.7,12.1,24.4,25.8,24.1c15.7-0.4,28.3-16.9,24.4-31.9c-0.6-2.2-2-1.6-3.2-1.6
		C405.3,265.1,397.8,265.1,390.3,265.1z M458.2,265.1c-7.3,0-14.7,0.2-22-0.1c-3-0.1-4,0.9-3.7,3.8c0.2,1.7,0,3.5,0.1,5.2
		c0.4,14.2,12.3,25.2,26.5,24.5c15.4-0.7,27.9-17.6,23.8-32c-0.6-2.2-2.1-1.5-3.2-1.5C472.5,265.1,465.3,265.1,458.2,265.1z
		 M116,198.1c-2.9,0-4.9,0.2-6.7,0c-6-0.8-10.6,1.1-14.8,5.5c-4.6,4.8-9.8,8.9-14.8,13.3c-11.5,10.2-23,20.5-35.4,31.5
		c13.6,0,25.9,0,38.1,0c1.6,0,2.5-0.5,3.3-1.9C95.7,230.7,105.6,214.8,116,198.1z M469.2,248.4c-17.7-15.7-34.7-30.1-50.7-45.4
		c-6.6-6.3-13.2-4.3-21-4.8c10.4,16.6,20.1,32.2,29.8,47.8c1,1.6,1.9,2.5,4,2.5C443.5,248.3,455.6,248.4,469.2,248.4z M223.2,37.5
		c0,9.9,0,9.9,9.8,9.9c1.4,0,2.8-0.1,4.2,0c1.9,0.1,2.9-0.3,2.8-2.5c-0.2-4.9,0.1-9.7-0.1-14.6c-0.2-4.8-3.9-8.2-8.5-8.1
		c-4.5,0.1-7.9,3.5-8.2,8.4C223.1,32.9,223.3,35.2,223.2,37.5z M273.5,37.6c0-2.3,0.1-4.5,0-6.8c-0.3-5.2-3.8-8.7-8.6-8.5
		c-4.5,0.1-7.9,3.5-8.1,8.4c-0.2,3.3,0,6.6,0,9.9c0,6.8,0,6.8,6.8,6.8C273.5,47.4,273.5,47.4,273.5,37.6z"/>
	<path class="st0" d="M374,332.1c16,0,32.1,0,48.1,0c7.6,0,10.5,2.9,10.5,10.4c0,23.9,0,47.8,0,71.6c0,7.1-3,10.1-10.2,10.1
		c-32.2,0-64.5,0-96.7,0c-7.2,0-10.2-3-10.2-10.1c0-24.1,0-48.1,0-72.2c0-6.8,3.1-9.8,10-9.8C341.6,332.1,357.8,332.1,374,332.1z
		 M374.5,348.9c-12.9,0-25.8,0.1-38.7-0.1c-3,0-3.8,0.8-3.7,3.7c0.1,17.1,0.1,34.2,0,51.3c0,3,0.8,3.8,3.7,3.7
		c25.5-0.1,50.9-0.1,76.4,0c2.9,0,3.8-0.8,3.7-3.7c-0.1-17.1-0.1-34.2,0-51.3c0-3-0.8-3.8-3.7-3.7
		C399.6,349,387.1,348.9,374.5,348.9z"/>
	<path class="st0" d="M140,332.1c15.9,0,31.7,0,47.6,0c7.5,0,10.5,2.9,10.5,10.4c0,23.7,0,47.4,0,71.2c0,7.5-2.9,10.5-10.4,10.5
		c-32.1,0-64.2,0-96.3,0c-7.2,0-10.3-3-10.3-10.2c-0.1-23.9-0.1-47.8,0-71.7c0-7.4,3.1-10.2,10.7-10.2
		C107.9,332.1,124,332.1,140,332.1z M139.5,348.9c-12.5,0-25.1,0.1-37.6-0.1c-3.3-0.1-4.1,0.9-4,4.1c0.2,16.9,0.2,33.8,0,50.7
		c0,3.4,1.1,4,4.2,3.9c25.1-0.1,50.2-0.1,75.3,0c2.9,0,4.2-0.3,4.2-3.8c-0.2-17.1-0.2-34.2,0-51.2c0-3-0.9-3.7-3.8-3.7
		C164.9,349,152.2,348.9,139.5,348.9z"/>
</g>
</svg>
