<?xml version="1.0" encoding="utf-8"?>
<!-- Generator: Adobe Illustrator 19.0.0, SVG Export Plug-In . SVG Version: 6.00 Build 0)  -->
<svg version="1.1" id="Layer_1" xmlns="http://www.w3.org/2000/svg" xmlns:xlink="http://www.w3.org/1999/xlink" x="0px" y="0px"
	 viewBox="0 0 512 512" style="enable-background:new 0 0 512 512;" xml:space="preserve">
<style type="text/css">
	.st0{fill:#FFFFFF;}
</style>
<g>
	<path class="st0" d="M219.5,5.7c4.7,2.3,6.5,6.1,6.2,11.3c-0.3,6,0.1,12-0.1,18c-0.1,3.3,0.8,4.5,4.3,4.4
		c9.9-0.2,19.8-0.1,29.8-0.1c8.2,0.1,10.9,2.7,10.9,10.8c0.1,10.1,0.1,20.2,0,30.3c0,2.9,0.7,3.9,3.8,3.9
		c13.3,0.2,13.3,0.3,13.3-12.9c0-7,0-14,0-21c0-8.5,2.6-11.1,11.1-11.1c27.3,0,54.7,0,82,0c22.9,0,45.9,0,68.8,0
		c9.6,0,12.1,2.5,12.1,12.1c0,143.8,0,287.6-0.1,431.4c0,5.1,1.5,6.5,6.2,5.9c2.7-0.3,5.5-0.2,8.3,0c4.7,0.3,8,3.8,8.1,8.1
		c0.1,4.1-3.1,7.7-7.4,8.4c-1.4,0.2-2.9,0.2-4.4,0.2c-143.8,0-287.6,0-431.4,0c-1.6,0-3.3,0-4.8-0.3c-4.1-0.9-6.9-4.6-6.7-8.4
		c0.2-4.1,3.4-7.6,7.8-7.9c3.4-0.2,6.9-0.4,10.2-0.1c3.9,0.4,4.9-1.1,4.4-4.6c-0.1-1,0-1.9,0-2.9c0-101.8,0-203.6,0-305.5
		c0-10.6,2.3-12.9,12.9-12.9c20.3,0,40.7-0.1,61,0.1c3.7,0,4.9-0.8,4.9-4.7c-0.2-20.7-0.1-41.3-0.1-62c0-9.4,2.5-11.9,11.8-11.9
		c6,0,12-0.2,18.1,0.1c3,0.1,3.9-0.7,3.8-3.8c-0.2-10.1-0.1-20.2-0.1-30.3c0-8,2.8-10.9,10.8-10.9c10.1-0.1,20.2-0.1,30.3,0
		c2.9,0,4-0.6,3.9-3.7c-0.3-5.2,0.2-10.4-0.1-15.6c-0.3-5.6,0.5-10.6,4.9-14.5C215.6,5.7,217.6,5.7,219.5,5.7z M444.8,273.2
		c0-70.4,0-140.9,0.1-211.3c0-4.2-0.7-5.7-5.4-5.7c-43.4,0.2-86.9,0.2-130.3,0c-4.2,0-4.9,1.2-4.9,5.1c0.1,49.4,0.1,98.9,0.1,148.3
		c0,16.8,0.1,33.5-0.1,50.3c0,3.5,1,4.4,4.3,4.3c6.3-0.3,12.7-0.2,19,0c3.3,0.1,5-0.4,5.2-4.3c0.2-4.3,3.5-6.7,7.5-6.9
		c4.1-0.3,7.9,1.8,8.2,6c0.5,5.3,3.2,5.7,7.3,5.2c1.8-0.2,3.6-0.2,5.4,0c3.2,0.3,4.9-0.3,5.2-4.1c0.4-4.5,4.4-7.4,8.4-7.2
		c4.4,0.2,7.5,3.5,7.9,8.3c0.1,1.6,0.1,3.2,0.1,4.9c0,72.5,0,145.1-0.1,217.6c0,4,0.9,5.2,5,5.1c17.2-0.2,34.5-0.3,51.7,0
		c4.3,0.1,5.4-1,5.3-5.3C444.7,413.4,444.8,343.3,444.8,273.2z M68.4,334.2c0,49.9,0,99.9-0.1,149.8c0,3.8,0.9,5,4.8,4.9
		c10.2-0.3,20.5-0.2,30.7,0c3.3,0.1,4.1-1,4.1-4.1c-0.2-10.1-0.1-20.2,0-30.2c0.1-7.8,2.9-10.6,10.5-10.6c13.3-0.1,26.7,0,40,0
		c8.3,0,11.2,2.9,11.2,11.1c0,9.8,0.2,19.5-0.1,29.3c-0.1,3.5,0.6,4.8,4.4,4.7c10.1-0.3,20.2-0.3,30.2,0c4.1,0.1,4.6-1.3,4.6-4.9
		c-0.1-99.9-0.1-199.7,0-299.6c0-4-1.3-4.7-4.9-4.7c-43.4,0.1-86.8,0.2-130.3-0.1c-4.8,0-5.4,1.6-5.4,5.7
		C68.5,234.9,68.4,284.6,68.4,334.2z M225.7,384.4c0,33.2,0.1,66.4-0.1,99.5c0,3.9,1,4.8,4.8,4.8c43.8-0.1,87.5-0.1,131.3,0
		c3.8,0,4.5-1.2,4.4-4.6c-0.1-66.4-0.1-132.7,0-199.1c0-3.4-0.8-4.3-4.2-4.3c-43.9,0.1-87.8,0.1-131.8,0c-3.7,0-4.6,0.9-4.6,4.6
		C225.7,318.4,225.7,351.4,225.7,384.4z M287.5,182.9c0-25.9,0-51.7,0.1-77.6c0-3-0.5-4.2-3.9-4.2c-44.2,0.1-88.5,0.1-132.7,0
		c-3.4,0-3.9,1.1-3.9,4.1c0.1,17.7,0.2,35.5,0,53.2c0,3.5,0.7,4.6,4.4,4.6c21.1-0.2,42.3-0.1,63.4-0.1c7,0,9.6,2,10.6,8.6
		c0.4,2.6,1.6,2.7,3.5,2.7c6.8-0.1,13.7-0.1,20.5,0c6.1,0.1,9.9,3.5,9.8,8.5c-0.1,4.9-4,8.2-10.1,8.3c-6.7,0.1-13.3,0.1-20,0
		c-2.6-0.1-3.8,0.5-3.7,3.4c0.2,7,0.2,14,0,21c-0.1,3.1,1,3.9,3.9,3.8c6.7-0.2,13.3-0.1,20-0.1c3,0,5.9,0.5,7.9,3.1
		c2,2.6,2.6,5.5,1.2,8.7c-1.6,3.5-4.6,5-8.2,5.1c-7,0.1-14,0.2-21,0c-3.1-0.1-3.8,0.9-3.7,3.9c0.2,6.7,0.2,13.3,0,20
		c-0.1,3.4,0.9,4.4,4.3,4.4c17.7-0.2,35.5-0.2,53.2,0c3.7,0,4.6-1.1,4.6-4.7C287.5,234,287.5,208.5,287.5,182.9z M217.1,84.4
		c11.1,0,22.1-0.1,33.2,0.1c2.8,0,3.6-0.7,3.6-3.5c-0.2-7-0.2-14,0-21c0.1-2.6-0.4-3.7-3.4-3.6c-22.1,0.1-44.2,0.1-66.4,0
		c-3,0-3.5,1.1-3.4,3.7c0.1,6.8,0.3,13.7,0,20.5c-0.1,3.5,1.2,4,4.2,4C195.6,84.3,206.3,84.4,217.1,84.4z M152.8,474.7
		c0-3.6-0.1-7.1,0-10.7c0.1-2.3-0.3-3.5-3.1-3.5c-7.5,0.2-14.9,0.1-22.4,0c-2.2,0-2.7,0.7-2.7,2.8c0.1,7.6,0.1,15.2,0,22.9
		c0,2.2,0.8,2.7,2.9,2.7c2.1,0,2.9-0.7,2.8-2.8c-0.1-3.2-0.1-6.5,0-9.7c0.2-6.4,3.1-9.8,8.2-9.9c5.2-0.1,8.4,3.7,8.5,10.2
		c0.1,3.1,0.1,6.2,0,9.2c0,1.8,0.1,3.1,2.5,3c2.2-0.1,3.3-0.5,3.2-3C152.7,482.1,152.8,478.4,152.8,474.7z"/>
	<path id="XMLID_29_" class="st0" d="M383,155.1c-0.1,2-0.1,4.3-0.4,6.5c-0.6,4.3-3.6,6.6-7.6,6.9c-4,0.3-7.3-1.8-8.3-6
		c-1.2-5.1-1.1-10.3-0.1-15.4c0.9-4.4,4.1-6.7,8.4-6.4c4.3,0.3,7.2,2.8,7.7,7.4C382.9,150.2,382.9,152.5,383,155.1z"/>
	<path id="XMLID_28_" class="st0" d="M416.6,155c0,1.9,0.2,3.9,0,5.8c-0.6,4.6-4.3,7.9-8.5,7.8c-4.3-0.1-7.8-3.5-8-8.2
		c-0.2-3.9-0.2-7.8,0-11.6c0.3-4.7,3.6-8,7.9-8.2c4.2-0.2,8,3.1,8.6,7.7C416.8,150.4,416.6,152.7,416.6,155
		C416.6,155,416.6,155,416.6,155z"/>
	<path id="XMLID_27_" class="st0" d="M416.5,266.5c0,2.4,0.3,4.9-0.1,7.3c-0.7,4.3-4.5,7.3-8.5,7.1c-4.2-0.2-7.5-3.3-7.8-7.8
		c-0.3-4-0.3-8.1,0-12.1c0.3-4.7,3.8-8,8.1-8.1c4-0.1,7.7,3.1,8.4,7.4C416.8,262.2,416.5,264.4,416.5,266.5
		C416.5,266.5,416.5,266.5,416.5,266.5z"/>
	<path id="XMLID_26_" class="st0" d="M349.4,153.6c-0.2,3.6,0.3,6.4-0.7,9.1c-1.4,4.1-4.5,6.1-8.6,5.7c-4-0.4-7-2.8-7.4-7.1
		c-0.3-4.3-0.3-8.7-0.1-13.1c0.3-4.4,3.8-7.7,7.9-7.6c4.4,0.1,7.4,2.3,8.3,6.7C349.4,149.6,349.3,152.1,349.4,153.6z"/>
	<path id="XMLID_25_" class="st0" d="M400,378.6c0-1.9-0.2-3.9,0-5.8c0.4-4.4,3.8-7.7,8-7.6c4.3,0.1,7.6,2.3,8.3,6.7
		c0.8,4.8,0.8,9.7,0,14.5c-0.8,4.4-3.9,6.6-8.3,6.7c-4.1,0.1-7.5-3.3-7.9-7.7C399.8,383.2,400,380.9,400,378.6z"/>
	<path id="XMLID_24_" class="st0" d="M332.4,98.3c0.1-2.3,0-4.5,0.3-6.8c0.6-3.9,3-6.4,7-6.8c4.2-0.5,7.6,1.2,8.7,5.2
		c1.6,5.5,1.5,11.3,0.1,16.8c-1,4.1-4.3,6-8.5,5.5c-4.2-0.4-6.8-2.9-7.3-7.1c-0.3-2.2,0-4.5,0-6.8C332.6,98.3,332.5,98.3,332.4,98.3
		z"/>
	<path id="XMLID_23_" class="st0" d="M400,98.3c0-2.1-0.2-4.2,0-6.3c0.5-4.5,3.1-7.1,7.6-7.4c4.5-0.3,7.6,1.9,8.6,6.2
		c1.1,4.9,0.9,10,0.1,14.9c-0.7,4.4-4.6,6.9-8.9,6.5c-4.5-0.5-7-3.1-7.4-7.6C399.8,102.5,400,100.4,400,98.3
		C400,98.3,400,98.3,400,98.3z"/>
	<path id="XMLID_22_" class="st0" d="M416.8,211.4c-0.1,2,0,4.5-0.6,6.8c-1.1,4.3-4,6.6-8.5,6.3c-4.4-0.3-7.3-2.8-7.6-7.3
		c-0.3-4.2-0.3-8.4-0.1-12.6c0.3-4.6,3.4-7.5,7.8-7.7c4.3-0.2,7.8,2.5,8.6,6.9C416.8,206.1,416.7,208.5,416.8,211.4z"/>
	<path id="XMLID_21_" class="st0" d="M416.6,323c0,2.1,0.2,4.2,0,6.3c-0.6,4.7-4.1,7.7-8.5,7.6c-4.5-0.1-7.7-3.1-8-8
		c-0.2-3.9-0.2-7.8,0-11.6c0.3-4.9,3.5-7.9,8-8c4.4-0.1,7.9,2.9,8.5,7.5C416.8,318.7,416.6,320.9,416.6,323z"/>
	<path id="XMLID_20_" class="st0" d="M400,435.2c0-2.1-0.2-4.2,0-6.3c0.5-4.4,3.1-7,7.5-7.4c4.3-0.4,8,2.2,8.7,6.6
		c0.8,4.8,0.8,9.7,0,14.5c-0.8,4.4-4.5,6.9-8.9,6.5c-4.5-0.5-7-3.1-7.4-7.6C399.8,439.4,400,437.3,400,435.2
		C400,435.2,400,435.2,400,435.2z"/>
	<path id="XMLID_19_" class="st0" d="M383,98.8c-0.1,2.1-0.1,4.3-0.4,6.6c-0.7,4.2-3.3,6.6-7.5,6.8c-4.2,0.3-7.3-1.7-8.3-5.8
		c-1.3-5.2-1.3-10.6,0-15.8c1-4.3,4.3-6.3,8.7-5.9c4.2,0.4,6.7,2.9,7.2,7.2C382.9,94,382.9,96.3,383,98.8z"/>
	<path id="XMLID_18_" class="st0" d="M332.6,210.9c0-2.3-0.2-4.5,0-6.8c0.5-4.2,3-6.7,7.2-7.2c4.4-0.5,7.8,1.5,8.8,5.9
		c1.2,5.2,1.2,10.6,0,15.8c-1,4.3-4.4,6.3-8.8,5.8c-4.2-0.5-6.7-3-7.2-7.2C332.5,215.1,332.6,213,332.6,210.9z"/>
	<path id="XMLID_17_" class="st0" d="M383,211.1c-0.1,2.1-0.1,4.2-0.4,6.3c-0.6,4.2-3.1,6.7-7.3,7.1c-4.4,0.4-7.6-1.7-8.7-6
		c-1.2-5.1-1.1-10.3,0-15.4c0.9-4.4,4.1-6.5,8.5-6.2c4.5,0.3,7.1,2.9,7.5,7.4c0.2,2.2,0,4.5,0,6.8
		C382.8,211.1,382.9,211.1,383,211.1z"/>
	<path id="XMLID_16_" class="st0" d="M130.5,288.9c0-1.9-0.2-3.9,0-5.8c0.5-4.5,3.7-7.8,7.9-7.7c4.3,0.1,7.5,2.2,8.3,6.7
		c0.9,4.8,0.9,9.7,0,14.5c-0.8,4.4-3.9,6.6-8.2,6.8c-4.1,0.1-7.5-3.1-8-7.6C130.3,293.4,130.5,291.1,130.5,288.9
		C130.5,288.9,130.5,288.9,130.5,288.9z"/>
	<path id="XMLID_15_" class="st0" d="M147.1,401.7c0,2.7,0.4,5.5-0.6,8.2c-1.4,3.8-4.3,5.8-8.2,5.6c-4.1-0.2-7.2-2.4-7.7-6.7
		c-0.4-4.3-0.5-8.7-0.2-13.1c0.3-4.8,3.8-8,8.1-8.1c4.1-0.1,7.8,3.2,8.5,7.8C147.3,397.5,147.1,399.6,147.1,401.7z"/>
	<path id="XMLID_14_" class="st0" d="M113.2,289.4c0,2.1,0.2,4.2,0,6.3c-0.4,4.6-3.3,6.9-7.6,7.5c-3.8,0.6-7.8-2.3-8.6-6.3
		c-1-4.9-0.9-10-0.1-15c0.8-4.4,4-6.6,8.4-6.6c4.2,0,7.5,3.3,7.9,7.7C113.4,285.2,113.2,287.3,113.2,289.4
		C113.2,289.4,113.2,289.4,113.2,289.4z"/>
	<path id="XMLID_13_" class="st0" d="M180.6,289.1c0,2.3,0.2,4.5,0,6.8c-0.5,4.6-3.5,7-7.7,7.3c-4.1,0.3-7.4-1.8-8.3-6
		c-1.1-5.2-1.2-10.6,0-15.9c1-4.2,4.3-6.2,8.3-5.9c4.2,0.3,7.2,2.8,7.6,7.4C180.7,284.9,180.6,287,180.6,289.1z"/>
	<path id="XMLID_12_" class="st0" d="M180.6,401.8c0,2.1,0.2,4.2,0,6.3c-0.5,4.5-3.4,7-7.6,7.4c-4.1,0.3-7.4-1.8-8.3-5.9
		c-1.2-5.2-1.2-10.6,0-15.9c0.9-4.2,4.2-6.2,8.3-6c4.2,0.3,7.3,2.7,7.7,7.3C180.7,397.3,180.6,399.5,180.6,401.8z"/>
	<path id="XMLID_11_" class="st0" d="M113.2,401.8c0,1.9,0.1,3.9,0,5.8c-0.4,4.5-3.5,7.6-7.7,8c-4,0.3-8.2-2.6-8.6-6.9
		c-0.5-4.6-0.5-9.4,0-14c0.4-4.3,4.6-7.3,8.6-7c4.2,0.3,7.4,3.4,7.8,7.9C113.4,397.6,113.2,399.7,113.2,401.8z"/>
	<path id="XMLID_10_" class="st0" d="M147,345.4c0,2.6,0.5,5.2-0.4,7.7c-1.4,4.3-4.2,6.4-8.7,6.1c-4.2-0.3-7-2.7-7.4-7
		c-0.4-4.2-0.4-8.4-0.2-12.6c0.3-5,3.5-7.9,8-8.1c4.4-0.1,7.8,2.7,8.5,7.5C147.3,341.2,147,343.3,147,345.4z"/>
	<path id="XMLID_9_" class="st0" d="M180.6,233.2c0,2.1,0.2,4.2,0,6.3c-0.5,4.4-3,7.1-7.5,7.5c-4.5,0.4-7.7-1.8-8.6-6.1
		c-1.1-5.1-1.1-10.3,0-15.4c1-4.3,4.2-6.4,8.6-6.1c4.2,0.3,6.8,2.8,7.4,7C180.8,228.6,180.5,230.9,180.6,233.2
		C180.5,233.2,180.6,233.2,180.6,233.2z"/>
	<path id="XMLID_8_" class="st0" d="M130.2,232.7c0.1-2,0.1-4.3,0.4-6.5c0.7-4.2,3.3-6.6,7.5-6.8c4.2-0.3,7.3,1.7,8.3,5.8
		c1.3,5.2,1.3,10.6,0,15.8c-1,4.3-4.3,6.3-8.7,5.9c-4.2-0.4-6.7-3-7.2-7.2C130.3,237.5,130.3,235.2,130.2,232.7z"/>
	<path id="XMLID_7_" class="st0" d="M113.3,233.3c0,1.9,0.1,3.9,0,5.8c-0.4,4.6-3.4,7.6-7.7,7.8c-4.5,0.3-8.3-2.6-8.8-7.2
		c-0.4-4.2-0.4-8.4-0.1-12.6c0.4-4.9,4.1-8.1,8.7-7.8c4.5,0.2,7.5,3.3,7.9,8.2C113.4,229.4,113.3,231.4,113.3,233.3
		C113.3,233.3,113.3,233.3,113.3,233.3z"/>
	<path id="XMLID_6_" class="st0" d="M113.2,345.3c0,2.1,0.2,4.2,0,6.3c-0.4,4.6-3.5,7.5-7.8,7.7c-4.3,0.2-7.9-2.5-8.6-6.9
		c-0.7-4.6-0.7-9.4,0-14c0.7-4.4,4.4-7,8.7-6.8c4.3,0.2,7.3,3.2,7.7,7.8C113.4,341.4,113.2,343.3,113.2,345.3z"/>
	<path id="XMLID_5_" class="st0" d="M180.5,345.3c0,2.3,0.2,4.5,0,6.8c-0.5,4.2-3,6.7-7.3,7.1c-4.4,0.4-7.7-1.6-8.7-5.9
		c-1.2-5.1-1.1-10.3-0.1-15.4c0.9-4.3,4-6.6,8.5-6.2c4.5,0.3,7.1,2.9,7.6,7.3C180.8,341.1,180.6,343.2,180.5,345.3
		C180.6,345.3,180.6,345.3,180.5,345.3z"/>
	<path id="XMLID_4_" class="st0" d="M287.6,384.6c0-24.7,0-49.4,0-74.1c0-1.9,0-3.9,0.3-5.8c0.6-4.1,3.4-6.3,7.3-6.7
		c3.7-0.4,6.6,1.3,8.3,4.8c0.9,1.8,1,3.7,1,5.7c0,50.9,0,101.8,0,152.6c0,6.5-2.7,10.1-7.7,10.5c-5.2,0.5-8.9-2.8-9-8.5
		c-0.2-7-0.1-14-0.1-21C287.6,422.9,287.6,403.7,287.6,384.6z"/>
	<path id="XMLID_3_" class="st0" d="M337.9,385.2c0,24.7,0,49.4,0,74.1c0,1.8,0,3.6-0.3,5.3c-0.6,4-3.1,6.4-7.1,6.8
		c-4.2,0.5-7.2-1.4-8.7-5.4c-0.7-1.9-0.7-3.8-0.7-5.8c0-50.4,0-100.8,0-151.2c0-2,0-3.9,0.7-5.8c1.4-3.9,4.4-5.8,8.2-5.6
		c4,0.3,7,2.5,7.6,6.9c0.3,1.9,0.3,3.9,0.3,5.8C338,335.5,337.9,360.3,337.9,385.2z"/>
	<path id="XMLID_2_" class="st0" d="M270.6,384.9c0,25.4,0,50.7,0,76.1c0,6.1-2,9.3-6.1,10.3c-4.8,1.2-9.1-1.4-10.3-6.4
		c-0.4-1.7-0.4-3.5-0.4-5.3c0-49.9,0-99.8,0-149.7c0-0.7,0-1.3,0-2c0.2-6.4,3.6-10.4,8.7-10.2c5,0.2,8.1,3.9,8.1,10.1
		C270.6,333.6,270.6,359.3,270.6,384.9z"/>
	<path id="XMLID_1_" class="st0" d="M217.6,146.2c-10.9,0-21.8,0.1-32.6,0c-6.5-0.1-10.1-4-9.5-9.6c0.5-4.3,3.7-7,8.9-7.2
		c6.8-0.2,13.6-0.1,20.5-0.1c14.9,0,29.9-0.1,44.8,0.1c7.6,0.1,11.9,6.3,8.6,12.3c-2.1,3.8-5.6,4.6-9.5,4.6
		C238.4,146.2,228,146.2,217.6,146.2z"/>
</g>
</svg>
