<?xml version="1.0" encoding="utf-8"?>
<!-- Generator: Adobe Illustrator 19.0.0, SVG Export Plug-In . SVG Version: 6.00 Build 0)  -->
<svg version="1.1" id="Layer_1" xmlns="http://www.w3.org/2000/svg" xmlns:xlink="http://www.w3.org/1999/xlink" x="0px" y="0px"
	 viewBox="0 0 512 512" style="enable-background:new 0 0 512 512;" xml:space="preserve">
<style type="text/css">
	.st0{fill:#FFFFFF;}
</style>
<g>
	<path class="st0" d="M268.7,6c8.1,2.7,16.6,3.3,25,4.9c27.2,4.9,54.4,9.6,81.6,14.5c9.1,1.6,13,7.1,11.7,16.4
		c-1.3,8.5-2.8,17-4.5,25.4c-0.4,2.3-0.2,3.1,2.3,3.4c8,1.2,16,2.7,24,4.3c10.1,2,13.9,7.3,12.2,17.4c-3.2,19.1-6.7,38.1-10.1,57.1
		c-8.6,48.9-17.3,97.9-25.9,146.8c-1.9,10.6-3.7,21.1-5.6,31.7c-0.5,2.6-1,4.3,3.1,4.4c5.6,0.1,9,4.9,8.3,11
		c-1.6,14.4-3.5,28.7-5.3,43.1c-1,8.4-2,16.8-3.2,25.2c-0.4,3,1,2.7,3,2.4c12.7-1.8,25.4-3.5,38.2-5.3c4.5-0.6,8.9-0.6,11.9,3.6
		c2.8,3.9,2,8-0.1,12c-0.4,0.7-0.7,1.5-1,2.2c-4.3,9.4-8.4,19-13,28.3c-2,4-1.7,5.7,2.8,7.5c19.8,8.1,39.4,16.7,59.1,25
		c4.1,1.7,6.9,4.5,7.1,9c0.1,4.2-1.9,7.5-6,9.2c-0.2,0.1-0.4,0.5-0.6,0.7c-67.1,0-134.1,0-201.2,0c-2.8-2.7-5.5-5.7-3.7-10
		c1.9-4.7,6-4.8,10.2-4.7c6.2,0.1,12.4,0,18.5,0c11.6,0,23.3,0,36.3,0c-4.1-2.9-5.7-6-4.5-9.5c1-3,2.9-5.8,4.6-8.9
		c-3.1,0.3-5.7,0.5-8.3,0.8c-2.6,0.3-5.2,0.6-7.8,0.8c-6.8,0.4-10.7-4.1-9.6-10.7c1.1-6.6,2.2-13.2,3.4-20.2
		c-12.3,4.5-24.1,8.7-35.8,13c-8.3,3-11.4,1.7-15-6.2c-4.7-10.4-9.5-20.8-14.6-32.2c-5.2,11.5-10,22.1-14.8,32.6
		c-4,8.8-7.1,10.1-16,6.8c-12.7-4.7-25.4-9.3-38.5-14.1c1.2,6.9,2.2,13.1,3.3,19.3c1.4,8-2.7,12.5-10.9,11.6
		c-4.8-0.5-9.6-1-14.8-1.5c2.8,6,9.7,11,2.7,18.4c27.8,0,54.8,0,81.8,0c3,0,5.9,0.2,8,2.7c3,3.6,2.1,7.6-2.7,12
		c-75.2,0-150.4,0-225.6,0c-3.8-2.4-7-5.3-6.5-10.4c0.5-5.1,4.1-7.3,8.4-9.1c17.8-7.5,35.5-15.2,53.3-22.6c3.3-1.4,3.9-2.6,2.3-6
		c-5.5-11.4-10.5-23-15.9-34.5c-1.9-4-2.5-7.7,0.2-11.5c2.8-3.8,6.7-4.2,10.9-3.6c12.4,1.7,24.9,3.1,37.2,5.2
		c4.5,0.8,5.1-0.3,4.6-4.4c-2.8-21.8-5.3-43.6-8.1-65.4c-0.5-4.3,0.3-7.8,3.9-10.3c3.6-2.5,7.3-2,11,0c5.9,3.1,11.8,6.1,17.7,9.3
		c2.2,1.2,3.4,1.9,4-1.7c8-45.9,16.1-91.9,24.2-137.8c0.3-1.6,0.5-3.2,0.9-4.8c1.1-4.3,4.7-6.8,8.7-5.9c3.9,0.9,6.4,4.6,5.6,8.9
		c-2.6,14.9-5.2,29.8-7.9,44.6c-6,33.9-12,67.8-18.1,101.7c-0.5,3,0.4,4.3,3,5.6c13,6.6,26,13.3,38.8,20.3c3.6,1.9,4.7,1.3,5.9-2.4
		c11-34.8,22.1-69.6,33.2-104.3c2.1-6.5,4.9-9.1,9.8-9.1c5,0,7.8,2.6,9.9,9c4.9,15.1,9.7,30.3,14.5,45.4c1.7,5.4-0.5,9.7-5.2,10.7
		c-3.8,0.8-7.1-1.4-8.6-6c-3.2-9.7-6.3-19.4-9.4-29.2c-0.2-0.7,0-1.7-1.6-2c-3.7,11.6-7.5,23.3-11.2,34.9
		c-6.6,20.7-13.2,41.4-19.8,62.1c-3.2,10.1-8.2,12.2-17.6,7.3c-24.3-12.7-48.6-25.4-72.9-38c-0.8-0.4-1.7-0.9-3.3-1.7
		c0.9,8,1.7,15.3,2.6,22.6c1.8,14.5,3.7,29,5.4,43.6c1.1,9.6-3.6,13.9-13.3,12.5c-12.7-1.8-25.4-3.4-38.9-5.2
		c4.7,10.4,9.2,20.2,13.6,30c6.4,14,5.5,16.4-8.5,22.3c-11.1,4.7-22.2,9.4-33.1,15c19.6,0,39.3,1.1,58.8-0.4
		c11-0.9,21.7-6.1,32.6-9.4c2-0.6,1-1.7,0.4-2.6c-1.8-2.9-3.7-5.7-5.6-8.6c-1.9-3-2.4-6-0.5-9.2c1.9-3.1,4.8-4.4,8.3-4
		c6,0.5,12,1,18,1.8c3,0.4,4-0.2,3.4-3.4c-1.3-6.2-2.2-12.5-3.3-18.7c-1.4-8.1,4.2-13.1,11.9-10.3c13.9,4.9,27.8,9.9,41.6,15.2
		c3.6,1.4,4.9,0.6,6.4-2.7c5-11.5,10.3-22.7,15.4-34.2c2-4.6,5-7.6,10.3-7.5c5.1,0.1,7.9,3.1,9.8,7.4c5,11.3,10.3,22.4,15.2,33.7
		c1.3,2.9,2.5,3.3,5.4,2.2c12.4-4.7,24.9-9.2,37.4-13.8c9.6-3.5,14.9,1.1,13.2,11.2c-1,5.9-2,11.9-3.1,17.8
		c-0.5,2.6,0.1,3.4,2.9,3.1c5.8-0.8,11.6-1.2,17.5-1.8c3.9-0.4,7.2,0.6,9.3,4c2.2,3.5,1.2,6.7-0.9,10c-1.8,2.8-5.7,5.9-4.7,8.5
		c0.8,2,5.9,2.4,9.1,3.4c8.3,2.7,16.9,4.6,25.1,7.9c0.9,0.3,1.9,0.4,2.8,0.4c19.4,0,38.7,0,58.4,0c-0.7-1.5-1.9-1.6-3-2.1
		c-13.4-5.7-26.8-11.5-40.3-17.2c-7.9-3.4-9.6-7.7-6.1-15.5c4.8-10.7,9.6-21.3,14.7-32.5c-10.8,1.4-21.2,2.8-31.5,4.2
		c-2.9,0.4-5.8,0.9-8.7,1.3c-8,1.1-13-4-12-12.2c2.7-22.1,5.4-44.2,8.1-66.8c-17,8.8-33.6,17.4-50.1,26c-7.5,3.9-14.9,7.8-22.5,11.6
		c-7.3,3.7-12.6,1.5-15.2-6.3c-3.2-9.7-6.3-19.4-9.4-29.2c-1.8-5.7-0.2-9.6,4.5-11c4.3-1.3,7.7,1,9.5,6.7c2.4,7.2,4.8,14.5,6.9,21.8
		c0.7,2.4,1.5,2.8,3.7,1.6c19.3-10.1,38.6-20.1,57.9-30c2.3-1.2,2.2-3,2.5-4.8c4.1-23,8.2-46.1,12.2-69.1c9-51,18-102.1,27-153.1
		c1.3-7.2,2.3-14.4,3.9-21.6c0.7-3.1-0.1-3.8-3.1-4.3c-32.5-5.6-65-11.5-97.4-17.2c-28.3-5-56.7-9.8-85-15c-3.6-0.7-4,0.7-4.5,3.4
		c-6.1,35-12.3,70.1-18.5,105.1c-1,5.7-4.1,8.6-8.5,7.9c-4.7-0.7-6.9-4.7-5.9-10.5c6.4-36.3,12.8-72.6,19.2-109
		c1.7-9.4,7.7-13.7,17.1-12.1c8,1.4,16,2.8,24,4.4c2.6,0.5,3.4-0.3,3.8-2.7c1.2-7.7,2.9-15.3,3.9-23.1c0.9-7,4.1-11.7,10.8-13.9
		C264.2,6,266.4,6,268.7,6z M267.3,21.2c-2.2-0.8-1.7,1.7-1.9,3c-1.3,6.5-2,13.2-3.6,19.6c-1.1,4.4,0.3,5.4,4.2,6.1
		c32.7,5.6,65.3,11.3,97.9,17.1c3.1,0.6,4-0.1,4.4-2.9c1.1-6.9,2.2-13.8,3.6-20.6c0.6-3-0.1-3.8-3.1-4.4c-20.2-3.4-40.3-7-60.5-10.6
		C294.9,26.1,281.5,23.7,267.3,21.2z"/>
	<path class="st0" d="M231.3,132.1c2-11.1,4.1-23.7,6.7-36.3c1.1-5.2,6.3-8.3,11.6-7.4c11.7,1.9,23.3,4,35,6.2
		c7.3,1.4,10.5,6.5,9.2,13.9c-1.9,10.5-3.7,21.1-5.6,31.6c-1.5,8.8-6,12-15.2,10.4c-11-1.9-22.1-3.7-33-5.9
		C234.1,143.6,231,139.4,231.3,132.1z M278.4,111c1.2-3-1.4-2.9-3.2-3.2c-7-1.3-14-2.4-21-3.8c-2.4-0.5-3,0.2-3.4,2.4
		c-1.1,7.4-2.4,14.7-3.9,22c-0.6,2.7,0.7,3,2.6,3.4c7.3,1.3,14.7,2.5,22,3.9c1.8,0.3,2.7,0,3-1.9C275.7,126.2,277,118.7,278.4,111z"
		/>
	<path class="st0" d="M358,206.4c-2.1,11.3-4.2,24.3-7,37.2c-1,4.9-5.8,7.7-11,6.9c-12.4-1.9-24.7-4-37-6.4
		c-5.5-1.1-8.8-6.6-7.8-12.3c1.9-11.4,3.9-22.7,6-34.1c1.5-7.7,6.5-10.9,14.2-9.5c10.6,1.9,21.1,3.7,31.7,5.5
		C354.3,194.9,358,198.8,358,206.4z M318,203.4c-2.6-0.7-3,0.7-3.3,2.5c-1.2,7.2-2.5,14.3-3.8,21.5c-0.4,2.1-0.1,3.1,2.4,3.5
		c7.5,1.1,15,2.5,22.4,4c2.8,0.6,2.5-1.2,2.8-2.6c1.3-7.3,2.5-14.7,3.9-22c0.3-1.8,0.2-2.8-1.8-3.1C333,206.1,325.3,204.7,318,203.4
		z"/>
	<path class="st0" d="M329.2,102.4c11,2,23.7,4,36.2,6.6c5.5,1.1,8.5,6.4,7.5,12c-1.9,11.5-3.9,23.1-6.1,34.5
		c-1.5,7.4-6.5,10.5-14,9.2c-10.7-1.9-21.4-3.8-32.2-5.7c-7.8-1.4-11.3-5.9-10.1-13.8c1.8-11.6,3.9-23.1,6-34.6
		C317.7,105.4,322.1,102.3,329.2,102.4z M357.5,124.5c1-2.4-1-2.3-2.6-2.6c-7.4-1.3-14.7-2.5-22.1-3.9c-2-0.4-2.5,0.1-2.8,1.9
		c-1.3,7.7-2.7,15.4-4.1,23c-0.3,1.7,0.2,2.4,1.8,2.6c7.5,1.3,15,2.6,22.6,4c1.9,0.3,3,0.1,3.4-2.2
		C354.8,139.8,356.1,132.3,357.5,124.5z"/>
	<path class="st0" d="M259.8,236.5c-11-2-23.6-4.1-36.2-6.8c-5.5-1.2-8.4-6.4-7.4-12c1.9-11.2,3.8-22.4,5.9-33.6
		c1.5-8.1,6.3-11.4,14.3-10c10.9,1.9,21.8,3.8,32.6,5.8c7.2,1.3,10.7,6,9.5,13.3c-1.9,11.5-3.9,23.1-6,34.6
		C271.5,233.5,267.3,236.7,259.8,236.5z M256.7,221.1c1.7,0.7,2.4-0.4,2.7-2.4c1.3-7.5,2.6-15,4-22.5c0.3-1.6,0.1-2.4-1.7-2.7
		c-7.7-1.3-15.4-2.6-23-4c-1.8-0.3-2.7,0.2-3,2c-1.3,7.5-2.6,15-4,22.5c-0.3,1.6-0.1,2.6,2,3C241.2,218.2,248.7,219.6,256.7,221.1z"
		/>
</g>
</svg>
