<?xml version="1.0" encoding="utf-8"?>
<!-- Generator: Adobe Illustrator 19.0.0, SVG Export Plug-In . SVG Version: 6.00 Build 0)  -->
<svg version="1.1" id="Layer_1" xmlns="http://www.w3.org/2000/svg" xmlns:xlink="http://www.w3.org/1999/xlink" x="0px" y="0px"
	 viewBox="0 0 512 512" style="enable-background:new 0 0 512 512;" xml:space="preserve">
<style type="text/css">
	.st0{fill:none;stroke:#FFFFFF;stroke-width:10;stroke-miterlimit:10;}
</style>
<g id="XMLID_9_">
	<circle id="XMLID_7_" class="st0" cx="129.8" cy="64.9" r="37.7"/>
	<path id="XMLID_6_" class="st0" d="M203.4,151.4c-8.4-24.5-22.6-36.9-41.9-36.9c-27.2,0-35.8,0-62.9,0c-19.5,0-33.5,12.4-41.9,36.9
		c-13,37.9-42.7,119.2-43,119.9c-3.4,9.4,1.5,19.9,10.9,23.3s19.9-1.5,23.3-10.9c0.2-0.6,21.6-58.9,36-100.2c-1,8,2.1-9-25.8,135.2
		c-0.6,2.9,0.2,6.1,2.1,8.4s4.8,3.8,7.8,3.8c4,0,8.6,0,13.8,0v131.8c0,11.9,9.8,21.8,21.8,21.8s21.8-9.8,21.8-21.8V330.8
		c3.1,0,6.3,0,9.4,0v131.8c0,11.9,9.8,21.8,21.8,21.8s21.8-9.8,21.8-21.8V330.8c5.2,0,10.1,0,13.8,0c2.9,0,5.9-1.3,7.8-3.8
		c1.9-2.3,2.7-5.4,2.1-8.4c-28.1-145.4-24.7-127.4-25.8-135.8c15.7,43,41.1,107.7,42.3,110.9c3.6,9.4,14.2,14,23.5,10.3
		c9.4-3.6,14-14.2,10.3-23.5C251.8,279.9,216.3,189.4,203.4,151.4z"/>
	<circle id="XMLID_5_" class="st0" cx="407.7" cy="65.3" r="37.5"/>
	<path id="XMLID_4_" class="st0" d="M499,157.5c-0.2-23.5-19.3-42.7-43-42.7c-1.3,0-9.4,0-98.3,0c-23.5,0-42.7,19.1-43,42.7
		l-0.6,133.1c0,10.1,8,18.2,18,18.2l0,0c10.1,0,18-8,18-18l0.6-133.1l0,0c0.2-2.1,1.9-4,4.2-3.8c2.1,0,4,1.9,4,4
		c0,44.6,0,294.4,0,304.5c0,11.9,9.6,21.8,21.8,21.8c11.9,0,21.8-9.6,21.8-21.8V288.7l0,0h9.4l0,0v173.7c0,11.9,9.6,21.8,21.8,21.8
		s21.8-9.6,21.8-21.8c0-81.3-0.4-220.2-0.4-304.5c0-2.1,1.7-3.8,3.8-3.8s3.8,1.7,3.8,3.8l0,0l0.6,133.1c0,10.1,8.2,18,18,18l0,0
		c10.1,0,18-8.2,18-18.2L499,157.5z"/>
	<path id="XMLID_3_" class="st0" d="M281.3,43.1c-8.8,0-15.9,7.1-15.9,15.9v390.2c0,8.8,7.1,15.9,15.9,15.9
		c8.8,0,15.9-7.1,15.9-15.9V59C297.2,50.2,290.1,43.1,281.3,43.1z"/>
</g>
</svg>
