<?xml version="1.0" encoding="utf-8"?>
<!-- Generator: Adobe Illustrator 19.0.0, SVG Export Plug-In . SVG Version: 6.00 Build 0)  -->
<svg version="1.1" id="Layer_1" xmlns="http://www.w3.org/2000/svg" xmlns:xlink="http://www.w3.org/1999/xlink" x="0px" y="0px"
	 viewBox="0 0 512 512" style="enable-background:new 0 0 512 512;" xml:space="preserve">
<style type="text/css">
	.st0{fill:#FFFFFF;}
</style>
<g>
	<path class="st0" d="M250.9,506c-7.6-3.4-12.7-9.7-18.1-15.6C189.2,442.6,145.1,395.2,102,347c-30.8-34.5-47.1-75.5-49.9-121.7
		C47.1,139.8,93,62.5,170.5,26.3c20.4-9.5,41.9-15.2,64.3-17.7c1.1-0.1,2.7,0.6,3.4-1.1c11.7,0,23.4,0,35.1,0
		c5.3,1.9,10.9,1.8,16.4,2.6c84.4,13.7,152.8,79.1,168.3,162.7c12.4,67-4.3,126.6-49.5,177.8c-18.4,20.8-37.4,41-56.1,61.4
		c-0.5,0.6-1.1,1.2-1.7,1.8c-3.3,2.9-7.1,3.1-10.1,0.4c-2.9-2.6-3.2-6.8-0.7-10.1c0.8-1,1.7-1.9,2.6-2.9
		c21-23.4,43.5-45.6,63.2-70.1c30.5-37.9,44.9-81.8,40.9-130.3c-6.6-80.2-48.3-136-122.5-166.3c-71.5-29.2-158.5-7.1-209.5,51
		C81.6,123,65.4,166.7,66.3,216.4c0.9,48.8,18.8,91.1,51.8,127.1c43.9,47.8,87.7,95.7,131.5,143.6c5.3,5.8,8.9,5.9,14.1,0.2
		c17.2-18.8,34.4-37.6,51.6-56.4c1.1-1.2,2.2-2.5,3.5-3.4c3.1-2.1,6.2-1.8,8.9,0.7c2.7,2.5,3.1,5.6,1.4,8.8
		c-0.8,1.5-2.1,2.8-3.3,4.2c-17.1,18.7-34.2,37.3-51.2,56.1c-3.9,4.3-8.5,7-13.9,8.7C257.4,506,254.1,506,250.9,506z"/>
	<path class="st0" d="M103.2,209.7c1.1-44.6,18-82.9,51.7-113.6c3.2-3,6.6-4.3,10.5-1.6c3.2,2.2,3.9,5.7,2.2,9.1
		c-0.9,1.8-2.7,3.2-4.2,4.6c-21.9,20.2-35.9,44.7-42.4,73.8c-16.8,75.8,35,152.7,111.3,165.5c75.1,12.5,144.3-34.3,160.4-108.5
		C408.9,164.2,358,88.3,282.6,74.5c-30.5-5.6-59.6-1.5-87.5,11.9c-0.9,0.4-1.7,0.9-2.6,1.3c-4.5,1.8-8.6,0.5-10.3-3.4
		c-1.6-3.7-0.2-7.5,4-9.7c11.4-6,23.4-10.4,35.9-13.2c78.6-17.9,157.1,27.2,181.2,104.1c27.6,88.2-29.9,181.3-121.2,196.5
		c-83.3,13.9-162-41.9-176.5-124.9C104.1,228.3,103.6,219.4,103.2,209.7z"/>
	<path class="st0" d="M264,256.5c3.7-2.4,6.4-4.4,9.3-6.1c2-1.1,1.8-2.9,2-4.6c5.2-33.5,37.7-54.7,69.7-45.6
		c9.1,2.6,11.9,6.6,10.8,16c-3.7,31.7-35.8,54.3-66.9,46.8c-4.5-1.1-7.5,0-11.5,1.9c-11.4,5.3-15.8,13.4-13.6,25.7
		c0.7,3.8,0.2,7.8,0.1,11.7c-0.2,5.2-2.8,8-7.1,8.1c-4.5,0.1-7.3-2.9-7.4-8.3c-0.1-7.5-0.3-14.9,0.1-22.4c0.2-4-0.6-7-4.5-8.5
		c-0.6-0.2-1.1-0.7-1.6-1.1c-7.4-6.5-15.1-8.1-25.4-6.3c-28.4,5-58.4-20-60.5-48.8c-0.6-8.4,2-12.2,10.1-14.6
		c30.8-9.1,63.8,10.4,69.5,41.9c1.4,7.8,6.5,10.2,12.3,14.1c0-12.8,0-24.7,0-36.7c0-2.4-2.1-3.1-3.5-4.3c-30.4-27-29.7-74.5,1.6-100
		c6.9-5.6,11.6-5.6,18.6,0.1c31.1,25.4,31.9,72.6,1.6,99.6c-2.7,2.4-3.8,4.7-3.7,8.2C264.2,234,264,244.7,264,256.5z M275.3,169.8
		c0-17.3-5.8-30.8-15.3-40.3c-2.6-2.6-4.1-2.4-6.6,0.1c-20.5,19.9-20.2,54.1,0.7,73.6c2.2,2.1,3.4,2,5.5-0.1
		C269.7,192.8,275,180.6,275.3,169.8z M182.9,212.7c-2.4,0.3-4.8,0.6-7.2,0.8c-3.4,0.2-3.6,1.7-2.9,4.7
		c4.8,21.2,26.1,35.1,47.5,30.9c3.2-0.6,3.4-1.7,2.7-4.5C218.8,226,202.2,212.8,182.9,212.7z M330.5,212.8
		c-19.3-0.1-35.9,13.2-40,31.8c-0.6,2.8-0.4,3.9,2.8,4.5c18.6,3.6,37.9-6.3,45.1-24.2C343,213.4,343.7,213.5,330.5,212.8z"/>
</g>
</svg>
