<?xml version="1.0" encoding="utf-8"?>
<!-- Generator: Adobe Illustrator 19.0.0, SVG Export Plug-In . SVG Version: 6.00 Build 0)  -->
<svg version="1.1" id="Layer_1" xmlns="http://www.w3.org/2000/svg" xmlns:xlink="http://www.w3.org/1999/xlink" x="0px" y="0px"
	 viewBox="0 0 512 512" style="enable-background:new 0 0 512 512;" xml:space="preserve">
<style type="text/css">
	.st0{fill:#FFFFFF;}
</style>
<g>
	<path class="st0" d="M9.8,269.4c2.3-2.8,2.6-6.4,3.7-9.6c4.6-14,9.2-27.9,13.5-42c1.6-5.1,4.5-7.2,9.8-7.1
		c9.9,0.2,19.9-0.1,29.8,0.1c2.9,0.1,3.8-0.7,3.7-3.7c-0.2-9-0.1-17.9-0.1-26.9c0-5.3,2.7-8.4,7.1-8.5c4.3-0.1,7.3,3.2,7.3,8.3
		c0.1,9,0.1,18,0,26.9c0,2.6,0.2,3.9,3.5,3.9c26.9-0.2,53.9-0.1,80.8-0.1c2.1,0,3.5,0,3.5-2.9c-0.1-40.4-0.1-80.8-0.1-121.2
		c0-0.3-0.2-0.5-0.5-1.1c-9.8,4.3-19.5,8.6-29.3,12.9c-18,8-35.9,16-53.9,23.8c-3.2,1.4-4.2,3.1-4,6.4c0.3,6.9,0.1,13.8,0.1,20.7
		c-0.1,5.6-2.8,8.7-7.4,8.7c-4.4-0.1-7-3-7-8.5c-0.1-9.6,0.1-19.2-0.1-28.8c-0.1-4.3,1.8-6.8,5.6-8.5c33.2-14.6,66.3-29.4,99.4-44.1
		c6.7-3,11.4,0.1,11.5,7.5c0.1,16,0.1,32.1-0.1,48.1c0,3.1,0.4,4.4,4,4.4c47.4-0.1,94.9-0.1,142.3,0c3.1,0,4-0.8,4-3.9
		c-0.2-9.3-0.1-18.6-0.1-27.9c0-6.2,2.6-8.8,8.8-8.8c49.2,0,98.4,0,147.6-0.1c3.9,0,6.3,1.9,9,4c0,41,0,82.1,0,123.1
		c-2.8,3.6-6.4,4.6-10.8,4.3c-5.1-0.3-10.3,0.4-15.4-0.2c-5.2-0.5-6,1.5-5.9,6.1c0.3,11.5,0.1,23.1,0.1,34.6c0,5.7-2.6,8.9-7.1,9
		c-4.7,0.1-7.3-3-7.3-9.1c0-12.2-0.1-24.4,0.1-36.5c0.1-3.2-0.9-4-4-4c-32.2,0.1-64.4,0.1-96.6,0c-3.1,0-4,0.8-4,4
		c0.1,30.3,0.1,60.6,0,90.9c0,3.3,1,3.9,4.1,3.9c32.2-0.1,64.4-0.1,96.6,0c3.2,0,4.1-0.8,4-4c-0.2-8.2-0.1-16.3,0-24.5
		c0.1-4.2,2.6-6.6,6.6-6.9c4-0.3,6.7,2,7.5,5.9c0.3,1.5,0.2,3.2,0.3,4.8c0,21.5,0,42.9,0,64.4c0,23.1,0.1,46.2-0.1,69.2
		c0,3.1,0.8,4.1,4,4c5.8-0.3,11.5,0.1,17.3-0.1c4.4-0.2,8.1,0.8,10.8,4.5c0,1.9,0,3.8,0,5.8c-2.8,3.5-6.5,4.3-10.9,4.2
		c-156.9-0.1-313.8-0.1-470.8,0c-4.4,0-8-0.8-10.9-4.2c0-1.9,0-3.8,0-5.8c2.6-3.8,6.4-4.9,10.8-4.5c1,0.1,1.9-0.1,2.9,0
		c3.8,0.6,5.6-0.6,5.1-4.8c-0.4-2.8-0.2-5.8,0.1-8.6c0.4-4.2,3.6-6.9,7.5-6.6c4,0.4,6.5,2.6,6.7,6.8c0.2,2.9,0.3,5.8,0,8.6
		c-0.3,3.5,0.6,4.7,4.4,4.6c39.9-0.2,79.8-0.1,119.7,0c3.7,0,4.5-1,4.5-4.5c-0.2-19.9-0.2-39.7,0-59.6c0-4.2-0.8-5.6-5.4-5.6
		c-39.3,0.2-78.5,0.2-117.8,0c-4.4,0-5.7,1.1-5.5,5.5c0.4,7.8,0.2,15.7,0,23.5c-0.1,4.1-2.5,6.5-6.6,6.9c-4,0.3-7-2.2-7.6-6.4
		c-0.2-1.6-0.1-3.2-0.1-4.8c0-33.7-0.1-67.3,0.1-101c0-3.7-0.9-5-4.7-4.7c-5.2,0.4-10.6,0.8-14-4.6C9.8,273.2,9.8,271.3,9.8,269.4z
		 M261.3,279.9c-23.7,0-47.4,0.1-71.1-0.1c-3.4,0-4.6,0.5-4.6,4.3c0.2,47.3,0.1,94.5,0,141.8c0,3.4,0.5,4.6,4.3,4.6
		c47.6-0.2,95.2-0.2,142.7,0c3.9,0,4.3-1.3,4.3-4.6c-0.1-47.1-0.1-94.2,0-141.3c0-4.3-1.3-4.8-5.1-4.8
		C308.4,280,284.8,279.9,261.3,279.9z M262.2,142.6c-23.7,0-47.4,0.1-71.1-0.1c-3.7,0-4.4,1-4.4,4.5c0.2,21,0.2,42,0,62.9
		c0,4.7,0.6,9.2,2.1,13.6c4.2,12.6,8.3,25.2,12.2,37.8c0.9,3.1,2.1,4.2,5.5,4.2c42-0.1,83.9-0.1,125.9,0c3.4,0,4.6-0.6,4.6-4.4
		c-0.2-38.1-0.2-76.2,0-114.4c0-3.9-1.3-4.3-4.6-4.3C309,142.6,285.6,142.6,262.2,142.6z M419.5,204.4c21.5,0,43-0.1,64.4,0.1
		c3.1,0,4-0.7,4-3.9c-0.1-31.6-0.1-63.2,0-94.7c0-3.1-0.8-3.9-3.9-3.9c-42.8,0.1-85.6,0.1-128.4,0c-3.2,0-4.3,0.5-4.3,4.1
		c0.2,31.4,0.1,62.8,0,94.2c0,3.4,0.9,4.2,4.3,4.2C376.8,204.3,398.2,204.4,419.5,204.4z M403.7,430.4c15.9,0,31.7-0.1,47.6,0.1
		c3.4,0,4.7-0.5,4.7-4.4c-0.2-30-0.1-60,0-89.9c0-3.2-0.6-4.3-4.1-4.3c-32.2,0.1-64.4,0.1-96.7,0c-3.3,0-3.9,1.1-3.9,4.1
		c0.1,30.1,0.1,60.3,0,90.4c0,3.5,1.1,4.2,4.3,4.1C371.6,430.3,387.6,430.4,403.7,430.4z M106.9,279.9c-20,0-40.1,0.1-60.1-0.1
		c-3.1,0-4.1,0.7-4.1,3.9c0.2,19.6,0.1,39.1,0,58.7c0,2.9,0.5,4.1,3.9,4.1c40.2-0.1,80.5-0.1,120.7,0c3.1,0,4.1-0.7,4-3.9
		c-0.2-19.6-0.2-39.1,0-58.7c0-3.5-1.1-4.1-4.3-4.1C147,279.9,126.9,279.9,106.9,279.9z M186.5,265.3c0.5-1.3-0.1-2.3-0.5-3.4
		c-3.5-10.8-7.1-21.5-10.3-32.4c-1-3.3-2.4-4.4-5.9-4.4c-39.4,0.1-78.8,0.1-118.2,0.1c-11.8,0-11.8,0-15.5,11.4
		c-3.1,9.5-6,19-9.1,28.7C80.5,265.3,133.5,265.3,186.5,265.3z"/>
	<path class="st0" d="M94.1,143.3c-0.1-7.8,2.1-11.3,7-11.3c5,0,7.3,3.6,7.3,11.2c0,1.9,0.1,3.9-0.3,5.7c-0.7,4-3.4,6.2-7.4,6
		c-3.8-0.2-6.2-2.5-6.6-6.3C93.9,146.8,94.1,145.1,94.1,143.3z"/>
	<path class="st0" d="M108.5,182.8c-0.1,1.9-0.1,3.9-0.4,5.7c-0.7,3.8-3.3,5.9-7.1,5.8c-3.8-0.1-6.4-2.2-6.8-6.1
		c-0.4-3.3-0.3-6.7-0.1-10c0.3-4.1,2.8-6.4,6.8-6.8c3.7-0.4,6.9,2.5,7.4,6.6c0.2,1.6,0,3.2,0,4.8
		C108.4,182.8,108.5,182.8,108.5,182.8z"/>
	<path class="st0" d="M162.9,183c0,1.3,0.1,2.6,0,3.8c-0.2,4.5-3,7.5-7,7.5c-4,0.1-7-2.8-7.4-7.3c-0.2-2.5-0.1-5.1,0-7.7
		c0.2-4.8,3-8,7.1-8.1c4.2-0.1,7.1,3.2,7.3,8.3C162.9,180.8,162.9,181.9,162.9,183z"/>
	<path class="st0" d="M162.8,143.4c0,1.8,0.2,3.5,0,5.3c-0.4,3.7-2.6,5.8-6.2,6.2c-3.8,0.4-6.7-1.3-7.6-5.1c-1-4-0.9-8.3-0.1-12.3
		c0.8-3.8,3.7-5.7,7.4-5.4c3.7,0.3,6.1,2.6,6.5,6.5C163,140.2,162.8,141.8,162.8,143.4C162.8,143.4,162.8,143.4,162.8,143.4z"/>
	<path class="st0" d="M135.7,143.7c0,7.8-2.2,11.2-7.2,11.2c-5,0-7.2-3.4-7.2-11.2c0-1.4-0.1-2.9,0-4.3c0.2-4.4,3.2-7.5,7.2-7.5
		c3.9,0,6.9,3,7.2,7.4C135.8,140.8,135.7,142.3,135.7,143.7z"/>
	<path class="st0" d="M135.7,183.1c0,7.8-2.2,11.2-7.2,11.3c-5,0-7.2-3.4-7.2-11.2c0-1.4-0.1-2.9,0-4.3c0.2-4.4,3.2-7.5,7.1-7.5
		c3.9,0,6.9,3,7.3,7.4C135.8,180.2,135.7,181.7,135.7,183.1z"/>
	<path class="st0" d="M426.9,249c0-1.1-0.1-2.2,0-3.4c0.3-4.6,2.9-7.5,7-7.6c4-0.1,7,2.7,7.4,7.2c0.2,2.5,0.2,5.1,0,7.7
		c-0.3,4.5-3.4,7.4-7.3,7.4c-4,0-6.8-3-7.1-7.5C426.8,251.6,426.9,250.3,426.9,249z"/>
	<path class="st0" d="M410.8,249.4c0,1.1,0.1,2.2,0,3.4c-0.3,4.7-3.4,7.8-7.5,7.6c-4-0.2-6.7-3.2-6.9-7.7c-0.1-2.4-0.1-4.8,0-7.2
		c0.2-4.4,3.2-7.4,7.2-7.4c3.8,0,6.8,2.9,7.2,7C410.9,246.5,410.8,248,410.8,249.4C410.8,249.4,410.8,249.4,410.8,249.4z"/>
	<path class="st0" d="M396.4,299.5c0-1.4-0.1-2.9,0-4.3c0.3-4.2,3.1-6.9,7.1-6.9c3.9,0,6.9,2.7,7.2,6.8c0.2,2.4,0.1,4.8,0.1,7.2
		c-0.1,5-3.2,8.4-7.4,8.2c-4.1-0.1-6.8-3.3-7-8.1C396.4,301.5,396.4,300.5,396.4,299.5C396.4,299.5,396.4,299.5,396.4,299.5z"/>
	<path class="st0" d="M380.2,249.2c0,7.8-2.3,11.3-7.2,11.2c-4.9-0.1-7.2-3.7-7.2-11.4c0-1.1-0.1-2.2,0-3.4c0.3-4.7,3.4-7.7,7.6-7.5
		c4,0.2,6.6,3.1,6.8,7.7C380.3,247,380.2,248.1,380.2,249.2z"/>
	<path class="st0" d="M441.3,299.5c0,1,0,1.9,0,2.9c-0.3,5-3.3,8.3-7.5,8.2c-4.1-0.1-6.8-3.3-6.9-8.1c-0.1-2.1-0.1-4.2,0-6.2
		c0.2-5,2.8-7.8,7.1-7.8c4.2,0,7,2.9,7.3,7.8C441.4,297.2,441.3,298.3,441.3,299.5z"/>
	<path class="st0" d="M380.2,299.5c0,7.4-2.2,10.9-7,11c-5,0.2-7.5-3.6-7.5-11.1c0-0.5,0-1,0-1.4c0-6.4,2.6-9.7,7.3-9.7
		c4.8,0,7.1,3.2,7.1,9.8C380.2,298.6,380.2,299,380.2,299.5z"/>
	<path class="st0" d="M152.9,390c-0.2,2.2-0.1,4.5-0.6,6.7c-0.9,3.8-3.6,5.7-7.4,5.4c-3.6-0.3-6.1-2.4-6.4-6
		c-0.3-3.7-0.3-7.4-0.1-11c0.2-4.3,3-7,6.9-7c4-0.1,6.8,2.4,7.3,6.7c0.2,1.7,0,3.5,0,5.3C152.7,390,152.8,390,152.9,390z"/>
	<path class="st0" d="M114.2,390c0,2.4,0.4,4.8-0.4,7.1c-1.2,3.5-3.7,5.2-7.3,4.9c-3.6-0.3-6.1-2.3-6.4-6c-0.3-3.7-0.3-7.4-0.1-11
		c0.2-4.3,3-7,6.9-7c4-0.1,6.8,2.4,7.3,6.7C114.4,386.4,114.2,388.2,114.2,390z"/>
	<path class="st0" d="M61.5,389.9c0-1.9-0.2-3.9,0-5.8c0.4-3.6,2.6-5.8,6.3-6.1c3.8-0.4,6.6,1.4,7.6,5.2c1,4.2,0.8,8.6,0.2,12.9
		c-0.6,4-3.4,6.3-7.4,6c-4-0.3-6.4-2.7-6.6-6.8C61.4,393.5,61.5,391.7,61.5,389.9C61.5,389.9,61.5,389.9,61.5,389.9z"/>
	<path class="st0" d="M291.2,378.4c0,7.5-2.5,11.3-7.5,11.1c-4.8-0.2-7-3.7-7-11.1c0-0.6,0-1.3,0-1.9c0.1-5.9,2.5-8.9,7-9
		c4.7-0.1,7.4,3,7.5,9C291.2,377.2,291.2,377.8,291.2,378.4z"/>
	<path class="st0" d="M291.3,308.9c-0.2,1.9-0.2,3.9-0.7,5.7c-1,3.3-3.4,4.9-6.9,4.9c-3.4-0.1-5.9-1.8-6.6-5.1
		c-0.9-3.8-0.8-7.7,0-11.4c0.7-3.6,3.5-5.4,7-5.4c3.3,0,5.8,1.8,6.6,5.2C291.2,304.7,291.1,306.8,291.3,308.9z"/>
	<path class="st0" d="M215.7,308.8c-0.2,1.9-0.2,3.9-0.7,5.7c-1.1,3.7-3.9,5.4-7.7,4.9c-3.6-0.5-5.8-2.7-6.1-6.3
		c-0.2-2.7-0.2-5.4-0.1-8.2c0.2-4.2,2.9-7.1,6.7-7.4c3.9-0.3,7.2,2.7,7.7,7c0.2,1.4,0,2.9,0,4.3
		C215.5,308.8,215.6,308.8,215.7,308.8z"/>
	<path class="st0" d="M201,378.5c0-7.8,2.3-11.1,7.4-11c4.9,0.1,7.1,3.5,7.1,10.9c0,0.6,0,1.3,0,1.9c-0.1,5.8-3,9.3-7.5,9.2
		c-4.4-0.1-6.9-3.5-6.9-9.1C201,379.8,201,379.1,201,378.5z"/>
	<path class="st0" d="M253.2,308.6c0,1.3,0.1,2.6,0,3.8c-0.3,4.2-3.1,7-7,7c-3.9,0.1-6.9-2.6-7.3-6.7c-0.2-2.5-0.2-5.1-0.1-7.7
		c0.2-4.4,3.2-7.5,7.1-7.6c4.1-0.1,7.1,3.1,7.3,7.8C253.2,306.4,253.2,307.5,253.2,308.6C253.2,308.6,253.2,308.6,253.2,308.6z"/>
	<path class="st0" d="M253.2,378.6c0,7.4-2.3,10.8-7.1,10.9c-4.9,0.1-7.4-3.6-7.4-10.7c0-1.3-0.1-2.6,0-3.8c0.3-4.5,3.1-7.4,7.2-7.5
		c4.2-0.1,7.1,3,7.3,7.8C253.2,376.4,253.2,377.5,253.2,378.6z"/>
	<path class="st0" d="M314.7,378.2c0-1.4-0.2-2.9,0-4.3c0.6-3.8,2.8-6.1,6.7-6.3c3.9-0.3,6.6,1.8,7.4,5.5c0.8,3.6,0.8,7.4,0,11
		c-0.9,3.7-3.6,5.7-7.4,5.4c-3.7-0.3-6.1-2.6-6.6-6.5C314.5,381.4,314.7,379.8,314.7,378.2C314.7,378.2,314.7,378.2,314.7,378.2z"/>
	<path class="st0" d="M329,308.7c0,1.6,0.3,3.3-0.1,4.8c-0.9,3.9-3.3,6.2-7.5,6c-4.1-0.2-6.4-2.7-6.8-6.7c-0.2-2.4-0.1-4.8-0.1-7.2
		c0.1-4.8,2.9-8,7-8.1c4.1-0.1,7.1,3.1,7.4,7.8c0.1,1.1,0,2.2,0,3.4C329,308.7,329,308.7,329,308.7z"/>
	<path class="st0" d="M276.6,168.2c0.2-1.8,0.1-3.6,0.6-5.2c0.9-3.3,3.2-5.1,6.7-5.1c3.4-0.1,6,1.6,6.8,4.9c1,3.9,1,8,0.1,11.9
		c-0.8,3.6-3.6,5.3-7.1,5.2c-3.3-0.1-5.8-2-6.5-5.4C276.7,172.4,276.7,170.3,276.6,168.2z"/>
	<path class="st0" d="M291.3,238.8c-0.1,1.6-0.1,3.2-0.3,4.8c-0.7,4.1-3.3,6.2-7.4,6c-3.8-0.1-6.3-2.3-6.7-6.2
		c-0.3-2.7-0.3-5.4-0.1-8.1c0.2-4.7,2.9-7.4,7-7.4c4.2-0.1,6.9,2.6,7.3,7.2c0.1,1.3,0,2.6,0,3.8
		C291.2,238.8,291.2,238.8,291.3,238.8z"/>
	<path class="st0" d="M253.2,169c0,7.3-2.4,10.8-7.2,10.8c-4.9,0-7.3-3.6-7.3-10.8c0-7.8,2.2-11.2,7.3-11.2
		C251,157.8,253.2,161.2,253.2,169z"/>
	<path class="st0" d="M201.1,168.5c0-1.4-0.1-2.9,0-4.3c0.4-3.6,2.6-5.8,6.2-6.3c3.8-0.5,6.6,1.3,7.7,5c1,3.7,0.9,7.6,0.1,11.4
		c-0.8,3.7-3.6,5.8-7.4,5.4c-3.9-0.4-6.4-2.7-6.6-6.9C201,171.4,201.1,169.9,201.1,168.5C201.1,168.5,201.1,168.5,201.1,168.5z"/>
	<path class="st0" d="M329.1,169c0,1.1,0.1,2.2,0,3.4c-0.3,4.4-3.3,7.5-7.2,7.5c-3.9,0-6.9-3.1-7.2-7.5c-0.1-2.2-0.1-4.5,0-6.7
		c0.1-4.8,3-7.9,7.2-7.9c4.2,0,7,3,7.3,7.9C329.1,166.8,329.1,167.9,329.1,169z"/>
	<path class="st0" d="M201.1,238.5c0-1.4-0.1-2.9,0-4.3c0.4-3.9,2.6-6.1,6.5-6.4c3.9-0.3,6.6,1.6,7.5,5.3c0.9,3.6,0.8,7.4,0.1,10.9
		c-0.9,3.9-3.7,5.9-7.8,5.5c-3.8-0.4-6-2.8-6.3-6.6C201,241.4,201.1,240,201.1,238.5z"/>
	<path class="st0" d="M314.6,238.7c0-1.1,0-2.2,0-3.4c0.2-4.6,2.8-7.4,6.9-7.6c4.3-0.1,7.3,2.8,7.5,7.5c0.1,2.1,0.1,4.2,0,6.2
		c-0.2,5.1-3.1,8.2-7.5,8.1c-4.2-0.1-6.8-3.1-7-8C314.6,240.6,314.6,239.6,314.6,238.7z"/>
	<path class="st0" d="M253.2,238.8c0,1.3,0.1,2.6,0,3.8c-0.3,4.2-3.1,6.9-7.1,7c-3.8,0-6.9-2.7-7.3-6.8c-0.2-2.7-0.2-5.4,0-8.1
		c0.3-4.4,3.5-7.1,7.6-6.9c3.9,0.2,6.5,2.9,6.7,7.2C253.2,236.3,253.2,237.5,253.2,238.8z"/>
	<path class="st0" d="M358.8,133c-0.3-3.1,0.1-6.7,3.8-8.6c3.2-1.6,6.2-1.1,8.7,1.6c2.7,3,2.9,12.3,0.2,15.4c-2.3,2.7-5.2,3.6-8.6,2
		C359.7,141.9,358.8,139.7,358.8,133z"/>
	<path class="st0" d="M408.9,133.8c0,1.1,0.1,2.2,0,3.4c-0.4,4.1-3.3,7-7.1,7.1c-3.9,0.1-7-3-7.3-7.3c-0.1-1.9-0.1-3.8,0-5.8
		c0.2-4.4,3.1-7.5,7.1-7.5c4.2-0.1,7.1,3.1,7.3,7.8C409,132.2,409,133,408.9,133.8z"/>
	<path class="st0" d="M444.5,134c0,1.4,0.2,2.9,0,4.3c-0.5,2.9-2.4,4.8-5.3,5.6c-2.8,0.8-5.1-0.2-7-2.1c-3.1-3.2-3-13,0.2-16.1
		c2-1.9,4.3-2.5,7.1-1.8c2.9,0.9,4.6,2.8,5,5.8C444.7,131.1,444.5,132.6,444.5,134C444.5,134,444.5,134,444.5,134z"/>
	<path class="st0" d="M480.3,135.1c0,0.4,0.1,1.8-0.2,3.2c-0.7,3.6-3.2,5.5-6.7,5.8c-5.2,0.4-7.8-3.8-7.6-11.9
		c0.2-5.6,3.3-9.1,8-8.6C478.4,124.1,480.3,127.2,480.3,135.1z"/>
	<path class="st0" d="M480.4,172.6c-0.1,1.4,0,2.9-0.2,4.3c-0.6,3.4-2.8,5.3-6.1,5.8c-3.4,0.4-6.1-1-7.3-4.2
		c-1.5-3.8-1.4-7.9-0.1-11.7c1.2-3.5,4-4.8,7.6-4.3c3.4,0.5,5.4,2.5,5.9,5.9c0.2,1.4,0,2.9,0,4.3
		C480.3,172.6,480.3,172.6,480.4,172.6z"/>
	<path class="st0" d="M430.2,171.6c-0.3-3.6,0.5-7.1,4.5-8.8c3-1.2,6-0.6,8.2,2c2.2,2.5,2.5,11.8,0.5,14.7c-1.9,2.7-4.6,3.9-7.9,3
		C431.6,181.4,430.1,178.5,430.2,171.6z"/>
	<path class="st0" d="M408.9,172.4c0,1.4,0.2,2.9,0,4.3c-0.8,3.7-3.1,5.9-7,6c-3.6,0.1-6.2-1.9-7-5.3c-0.8-3.2-0.8-6.7,0.1-10
		c0.9-3.4,3.5-5.2,7.2-5.1c3.7,0.2,5.9,2.3,6.7,5.7C409.1,169.5,408.8,171,408.9,172.4C408.8,172.4,408.8,172.4,408.9,172.4z"/>
	<path class="st0" d="M358.9,172.4c0-1.3-0.2-2.6,0-3.8c0.5-3.6,2.6-5.8,6.2-6.2c3.6-0.4,6.3,1.1,7.5,4.6c1.2,3.5,1.1,7.3,0.1,10.8
		c-1,3.5-3.7,5.2-7.3,4.9c-3.7-0.4-6.1-2.6-6.5-6.5C358.8,175,358.9,173.7,358.9,172.4z"/>
	<path class="st0" d="M427,399.3c0-1.4-0.1-2.9,0-4.3c0.4-3.8,2.6-6.1,6.5-6.4c4.1-0.3,6.9,1.8,7.5,5.8c0.5,3.3,0.5,6.7,0.1,10
		c-0.5,4-3.1,6.2-7.2,6.3c-3.8,0.1-6.6-2.9-6.9-7.1C426.8,402.2,426.9,400.8,427,399.3C426.9,399.3,427,399.3,427,399.3z"/>
	<path class="st0" d="M426.9,349.3c0-1.1,0-2.2,0-3.4c0.3-4.7,2.8-7.4,6.9-7.5c4.2-0.1,7,2.5,7.4,7.1c0.2,2.4,0.2,4.8,0,7.2
		c-0.3,4.8-3.2,7.9-7.3,7.9c-4.1,0-6.9-3.2-7.1-8C426.9,351.6,426.9,350.5,426.9,349.3z"/>
	<path class="st0" d="M380.2,349.5c0,7.7-2.3,11.3-7.2,11.2c-4.9-0.1-7.2-3.7-7.2-11.4c0-1.4-0.1-2.9,0.1-4.3
		c0.6-4.1,3.6-6.7,7.5-6.5c4,0.2,6.5,2.8,6.8,7.2C380.3,346.9,380.2,348.2,380.2,349.5z"/>
	<path class="st0" d="M380.2,399.6c0,7.7-2.3,11.2-7.3,11.1c-4.9-0.1-7.2-3.6-7.2-11.4c0-1.3-0.1-2.6,0-3.8c0.5-4.4,3.5-7.1,7.6-7
		c3.9,0.2,6.5,2.9,6.8,7.2C380.3,397.1,380.2,398.3,380.2,399.6z"/>
	<path class="st0" d="M396.4,349.5c0-1.1,0-2.2,0-3.4c0.2-4.9,2.9-7.8,7.3-7.7c4.1,0,6.9,2.9,7.1,7.4c0.1,2.4,0.1,4.8,0,7.2
		c-0.2,4.4-3.1,7.5-7.1,7.6c-4.1,0.1-7.1-3.1-7.3-7.8C396.4,351.8,396.4,350.7,396.4,349.5z"/>
	<path class="st0" d="M396.4,399.3c0-1.3-0.1-2.6,0-3.8c0.3-4.1,3.2-6.9,7.1-6.9c3.9,0,6.9,2.6,7.2,6.8c0.2,2.7,0.2,5.4,0,8.1
		c-0.3,4.4-3.4,7.3-7.4,7.3c-4-0.1-6.8-3.1-7-7.6C396.3,401.9,396.4,400.6,396.4,399.3C396.4,399.3,396.4,399.3,396.4,399.3z"/>
	<path class="st0" d="M138.4,312.8c0-1.9-0.2-3.9,0-5.7c0.5-3.6,2.8-5.7,6.4-6c3.9-0.3,6.6,1.6,7.4,5.4c0.9,4.2,0.8,8.6,0.1,12.9
		c-0.6,3.8-3.2,5.9-7.1,5.8c-4.1-0.1-6.5-2.5-6.9-6.6C138.2,316.7,138.4,314.7,138.4,312.8C138.4,312.8,138.4,312.8,138.4,312.8z"/>
	<path class="st0" d="M100,313.2c0-1.9-0.2-3.9,0-5.8c0.4-3.6,2.5-5.8,6.2-6.3c3.8-0.4,6.7,1.2,7.6,5c1.1,4.5,1,9.3,0,13.8
		c-0.9,3.8-3.7,5.6-7.6,5.1c-3.6-0.4-5.8-2.5-6.2-6.2C99.8,317,100,315.1,100,313.2z"/>
	<path class="st0" d="M61.5,313.2c0-1.9-0.2-3.9,0-5.8c0.3-3.7,2.5-5.9,6.1-6.3c3.8-0.5,6.8,1.2,7.7,5c1.1,4.5,1,9.3,0,13.8
		c-0.8,3.8-3.7,5.6-7.5,5.2c-3.6-0.4-5.9-2.5-6.3-6.2C61.4,317.1,61.5,315.1,61.5,313.2C61.5,313.2,61.5,313.2,61.5,313.2z"/>
</g>
</svg>
