<?xml version="1.0" encoding="utf-8"?>
<!-- Generator: Adobe Illustrator 19.0.0, SVG Export Plug-In . SVG Version: 6.00 Build 0)  -->
<svg version="1.1" id="Layer_1" xmlns="http://www.w3.org/2000/svg" xmlns:xlink="http://www.w3.org/1999/xlink" x="0px" y="0px"
	 viewBox="0 0 512 512" style="enable-background:new 0 0 512 512;" xml:space="preserve">
<style type="text/css">
	.st0{fill:#FFFFFF;}
</style>
<g>
	<path class="st0" d="M224.6,5.1c4.8,3.1,6.4,7.5,6.3,13.1c-0.3,11.3,0,22.5-0.1,33.8c-0.1,6.5-5.1,10.2-10.3,7.8
		c-3.6-1.6-4.5-5-4.5-8.6c0-8.5,0-16.9,0-25.3c-1.9-0.5-2.7,0.9-3.6,1.6c-24.7,17.7-49.3,35.4-74,53c-2.8,2-3.9,4.2-3.9,7.7
		c0.1,31.8,0,63.7,0.2,95.5c0,1.5-1.7,4.3,1.7,4.6c2.4,0.2,4.9,1,5.7-3c0.7-3.9,4.2-5.1,7.9-5.1c7.2,0,14.4,0,21.6,0
		c2.3,0,4,0,4-3.2c0-3.2-1.4-3.3-3.9-3.3c-7.2,0.1-14.4,0.1-21.6,0c-5.3-0.1-8.6-2.9-8.7-7.3c0-4.4,3.2-7.3,8.6-7.4
		c6.4-0.1,12.7,0,19.1,0c4.7,0,9.2,0.5,13.3-3c2.5-2.2,6.5-0.9,10-2c-2-2-3.8-1.3-5.5-1.3c-11.4-0.1-22.9,0-34.3-0.1
		c-1.9,0-4,0-5.8-0.5c-3.4-0.8-5.2-3.4-5.3-6.8c-0.1-3.4,1.7-6,5.1-6.9c1.9-0.5,3.9-0.6,5.8-0.6c11.1-0.1,22.2-0.2,33.3,0.1
		c4.4,0.1,7.7-0.4,7.3-6.4c-5,0-10.1,0-15.3,0c-9.1,0-18.3,0.1-27.4,0c-5.6-0.1-9-3.1-8.9-7.6c0.1-4.3,3.4-7.1,8.8-7.1
		c17.3-0.1,34.6,0,51.9,0c2.3,0,4.8,0.8,4.8-3.3c-0.1-4.3-2.8-3.2-5-3.2c-16.5-0.1-33,0-49.5,0c-1.6,0-3.3,0-4.9-0.2
		c-3.7-0.6-5.8-3-6.1-6.6c-0.3-3.4,1.5-5.9,4.7-7.2c2-0.8,4.2-0.7,6.3-0.7c17.6,0,35.3,0,52.9,0c8.8,0,10.3-1.4,10.7-10.1
		c0.3-5.8,3-8.9,7.6-8.9c4.6,0.1,7,3.1,7.2,9.1c0,0.8,0.1,1.6,0,2.4c-0.5,3.2,0.8,4.4,4.1,4.1c4.3-0.4,10,1.8,12.8-0.9
		c2.8-2.7,0.8-8.4,0.9-12.7c0.1-15.2,0-30.4,0.1-45.6c0-1.9,0.1-4,0.5-5.8c0.9-3.4,3.5-5.2,6.8-5.2c3.4,0,6,1.8,6.9,5.2
		c0.5,2,0.5,4.2,0.6,6.3c0,18.1,0.1,36.3-0.1,54.4c0,3.5,1,4.3,4.4,4.3c11.7-0.1,11.7,0.1,11.7-11.6c0-11.8,0-23.5,0-35.3
		c0-9,4.9-13.9,13.9-13.9c50.1,0,100.3,0,150.4,0c8.9,0,13.9,5,13.9,14c0.1,34.6,0,69.2,0,103.9c0,4.4-1.1,8.2-5.9,9.4
		c-3.4,0.8-6.1-0.7-7.8-3.6c-1.3-2.2-1-4.7-1-7.2c0-26.6,0-53.2,0-79.9c0-5.7-0.2-11.4,0.1-17.1c0.2-3.8-0.8-4.9-4.8-4.9
		c-35.4,0.2-70.9,0.1-106.3,0.1c-11.1,0-22.2,0.1-33.3-0.1c-3.2-0.1-4.5,0.5-4.4,4.1c0.2,12.7,0.2,25.5,0,38.2c0,2.7,0.6,4,3.3,4.8
		c3.5,1,6.1,3.6,6.8,7.1c0.7,3.3,2.2,3.3,5,3.1c4.7-0.4,9.5-0.2,14.2-0.1c5.3,0.2,8.6,3.2,8.5,7.5c0,4.4-3.2,7.1-8.7,7.2
		c-4.9,0.1-9.8,0.1-14.7,0c-1.8,0-3.8-0.8-3.4,2.3c0.2,2.2-1,5.2,3.1,5.1c3.6,0,7.2,0.3,10.8,0.4c1.8,0.1,3.6-0.1,5.4,0.1
		c4.7,0.5,7.6,3.4,7.6,7.4c0,4.1-2.9,7-7.7,7.2c-3.1,0.1-4.6,0.5-4.6,4.2c0,3.7,1.7,3.8,4.4,3.9c4.2,0.1,5.8,3,8,6.4
		c7.1,11.2,4.3,23.4,4.4,35.1c0.2,90.3,0.2,180.6,0,270.9c0,4.6,0.6,6.6,5.9,6.3c8.7-0.4,13.5,4.8,13.6,13.6c0.1,11,0.1,11,11.2,11
		c16.3,0,32.7-0.1,49,0.1c3.4,0,4.5-0.8,4.3-4.3c-0.3-6.5-0.1-13.1,0-19.6c0-2.1-0.5-3.2-2.8-3.7c-8.3-2-15.2-6.5-21.4-13.4
		c-2.1,6.7-7.3,6.6-12.7,6.6c-11.1-0.1-22.2,0-33.3,0c-4,0-7.6-1-9-5.3c-1.7-5.1,1.9-9.4,7.9-9.5c12.9-0.1,25.8,0,38.7,0
		c0.8,0,1.5,0,2.3,0c-1.7-7.9-1.7-7.9-9.2-7.9c-9.6,0-19.3,0-28.9,0c-1.3,0-2.6,0.1-3.9-0.1c-4.7-0.6-7.4-3.4-7.3-7.6
		c0.1-4.2,2.9-6.9,7.8-7c11.6-0.1,23.2-0.1,34.8,0c2.1,0,3.5,0,4.2-2.7c1.1-3.9,0.6-5.4-4-5.3c-10.6,0.3-21.2,0.1-31.8,0.1
		c-1.6,0-3.3-0.1-4.9-0.4c-4.2-0.7-6.3-3.4-6.1-7.5c0.2-4,2.6-6.4,6.5-6.7c4.1-0.3,8.2-0.2,12.2-0.2c8.5,0,17,0,25.5,0
		c1.6,0,3.7-0.4,4.8,0.5c4.9,3.9,7-0.1,9.9-2.9c2.4-2.3,5.3-4.2,8.2-6.5c-2.7-2.6-4.4-5.6-2.5-9.4c1.8-3.9,5.3-4.4,9.1-4.4
		c4.4,0,8.8-0.1,13.2,0c5.4,0.2,8.2,2.6,8.2,7.6c0,4,3,3.6,5,3.7c3,0.2,1.6-2.5,1.7-3.9c0.1-65.2,0.1-130.3,0.1-195.5
		c0-2,0-3.9,0.2-5.9c0.5-4,3.3-6.1,7-6.2c3.6-0.1,6.3,1.8,7,5.6c0.4,2.1,0.5,4.2,0.5,6.3c0,68.6,0,137.2,0,205.8
		c0,3.3,0.8,5.8,2.9,8.4c10.8,13.8,10.8,34.4,0,48.2c-2.2,2.8-3,5.5-2.9,8.9c0.2,10.1,0.2,20.3,0,30.4c-0.1,3.1,0.9,4,3.9,3.7
		c2.9-0.3,5.9-0.2,8.8,0c4.6,0.2,7.7,3.1,7.8,7.2c0.1,4.2-3.1,7.2-7.9,7.5c-1.3,0.1-2.6,0-3.9,0c-140.1,0-280.3,0-420.4,0
		c-1.6,0-3.3,0.1-4.9-0.1c-4.2-0.5-7.2-3.7-6.8-7.5c0.4-4.1,2.7-6.5,6.9-7c1.1-0.1,2.3-0.1,3.4-0.1c8.5,0,8.5,0,8.5-8.8
		c0-4.7-0.1-9.5,0-14.2c0.2-8.8-0.6-16.6-5.6-24.9c-9.1-14.8-7-30.3,3.5-44.2c1.7-2.3,2.1-4.6,2.1-7.2c0-62.6,0.1-125.1-0.2-187.7
		c-0.1-11.9,5.8-17.4,17.2-16.9c15.3,0.6,30.7,0,46,0.2c3.3,0,4-0.9,4-4c-0.1-32.2,0-64.3-0.1-96.5c0-8.5,3.2-14.5,10.1-19.4
		c29.3-20.7,58.4-41.7,87.6-62.6c0.2-0.2,0.3-0.5,0.4-0.8C220,5.1,222.3,5.1,224.6,5.1z M321.8,318.2c0-47.9-0.1-95.7,0.1-143.6
		c0-4.1-0.6-5.4-5.2-5.4c-40.5,0.2-81,0.2-121.5,0c-4.5,0-5.2,1.3-5.2,5.4c0.1,60.3,0.1,120.5,0.1,180.8c0,35.3,0.1,70.6-0.1,105.8
		c0,4.6,0.6,6.8,6,6.2c5.2-0.6,10.5-0.4,15.7,0c4,0.3,5.2-0.9,5.2-5c-0.2-24.5-0.1-49-0.1-73.5c0-9.5,5-14.3,14.5-14.4
		c16.2,0,32.3,0,48.5,0c10.8,0,15.5,4.6,15.5,15.4c0,24.2,0.1,48.3-0.1,72.5c0,4.2,1.2,5.3,5.2,5c5-0.4,10.1-0.4,15.2,0
		c4.9,0.4,6.5-0.9,6.5-6.2C321.7,413.6,321.8,365.9,321.8,318.2z M104.1,389.9c0-2.2,0-4,0-5.8c0-49.2,0-98.3,0-147.5
		c0-1.5-0.1-3,0.1-4.4c0.5-4.2,3.5-7.1,7.3-7.1c3.8,0,6.9,3,7.3,7.2c0.1,1.6,0.1,3.3,0.1,4.9c0,54.9,0,109.7,0,164.6
		c0,2.3,0.1,4.5,1,6.7c9.9,23.8-1.8,48.6-26.4,55.9c-2.9,0.9-3.4,2.2-3.3,4.8c0.1,6.4,0.2,12.7,0,19.1c-0.1,3.3,0.9,4,4.1,4
		c17.1-0.1,34.3-0.1,51.4-0.1c10.3,0,10.3,0,10.4-10.3c0.1-9.7,4.7-14.5,14.3-14.4c4,0.1,5.2-0.9,5.2-5.1
		c-0.1-84.8-0.1-169.5,0-254.3c0-4-0.8-5.2-5-5.2c-32.7,0.2-65.3,0.2-98,0c-4.2,0-5,1.1-5,5.1c0.1,56.3,0.1,112.7,0.1,169
		c0,3.1-0.9,7.1,0.7,9c1.5,1.8,5.3-1.3,8.2-1.2c3.8,0.1,4.6-1.7,4.6-5.3C80.9,332,81,284.5,81,237c0-1.9,0.1-3.9,0.4-5.8
		c0.6-4,3.4-6,7.2-5.9c3.6,0,6.2,2,6.8,5.8c0.3,1.9,0.4,3.9,0.4,5.8c0,47.2,0,94.4,0,141.6C95.8,386.4,95.8,386.4,104.1,389.9z
		 M231.5,428.5c0,8.7-0.1,17.3,0,26c0.1,4.2-1.8,9.7,0.8,12.2c2.6,2.5,8.1,0.4,12.3,0.8c3.4,0.4,4.1-1,4.1-4.2c-0.2-8-0.2-16,0-24
		c0.1-5.4,3.1-8.6,7.4-8.7c4.3,0,7.2,3.3,7.4,8.6c0.2,4.9,0,9.8,0,14.7c0,13.9,0,13.8,13.7,13.5c3-0.1,3.4-1.1,3.4-3.7
		c-0.1-23.7-0.1-47.3,0-71c0-2.4-0.4-3.6-3.1-3.4c-3.6,0.2-7.2,0.2-10.8,0c-2.7-0.2-3.4,0.9-3.3,3.4c0.1,4.9,0.2,9.8,0,14.7
		c-0.2,5.3-3.2,8.5-7.6,8.3c-4.2-0.1-6.9-3.1-7.1-8.3c-0.2-4.7-0.2-9.5,0-14.2c0.1-2.9-0.6-4.2-3.7-3.9c-3.2,0.3-6.5,0.3-9.8,0
		c-3.2-0.3-3.7,1-3.7,3.9C231.5,405,231.5,416.7,231.5,428.5z M427.9,451.1c14.4-0.1,26.2-12,26-26.3c-0.2-14.1-11.9-25.7-26-25.8
		c-14.4-0.1-26.1,11.7-26.1,26.1C401.8,439.6,413.4,451.2,427.9,451.1z M82.5,451.1c14.4,0.1,26.3-11.6,26.4-25.9
		c0.1-14.2-11.9-26.1-26.2-26.1c-14.2,0-25.7,11.5-26,25.7C56.3,439.1,68.1,451,82.5,451.1z M256.5,482.2c-27.1,0-54.2,0.1-81.3-0.1
		c-4.2,0-4.8,1.4-4.6,5c0.1,3.1-0.4,5.3,4.3,5.2c54-0.2,108-0.2,162.1,0c4.6,0,4.3-2.1,4.3-5.2c0.1-3.4-0.3-5-4.6-5
		C310,482.3,283.3,482.2,256.5,482.2z M256,140.1c-13.2,0-26.4,0-39.6,0c-9.5,0-9.3,0-9.6,9.7c-0.1,3.7,0.7,4.9,4.7,4.9
		c27.9-0.2,55.8-0.1,83.6-0.1c10,0,9.9,0,10-10.2c0.1-3.3-0.7-4.4-4.2-4.3C286,140.2,271,140.1,256,140.1z M256.5,106.9
		c-6.8,0-13.7-0.1-20.5,0c-4.7,0.1-11.1-2.1-13.5,0.8c-2.4,2.8-0.5,9-0.9,13.7c-0.3,3.4,1.1,4,4.2,4c16.8-0.1,33.6,0,50.4-0.1
		c4.7,0,11.1,2.1,13.6-0.9c2.4-2.8,0.5-9,0.9-13.7c0.3-3.5-1.2-3.9-4.2-3.9C276.4,107,266.4,106.9,256.5,106.9z M442.9,477.9
		c0-3.3,0.2-6.5-0.1-9.8c-0.2-1.5,1.7-4.7-1.8-4.3c-2.4,0.3-6.1-0.2-5.9,4.6c0.3,6.3,0.1,12.7,0.1,19.1c0,2.6-0.5,4.9,3.7,4.8
		c3.8-0.1,4.2-1.6,4-4.7C442.7,484.4,442.9,481.2,442.9,477.9z M67.6,477.5c0,4.1,0.1,8.1,0,12.2c-0.1,2.4,1.1,2.9,2.9,2.5
		c1.7-0.4,4.8,1.6,4.8-2c0.2-7.6,0.2-15.3,0-22.9c-0.1-3.7-3.9-3-6-3.4c-2.8-0.5-1.5,2.2-1.6,3.5C67.4,470.6,67.6,474.1,67.6,477.5z
		"/>
	<path class="st0" d="M368.2,389.8c-6,0-12.1,0.1-18.1,0c-6-0.1-9-2.7-9.1-7.3c-0.1-4.6,3-7.5,8.8-7.6c12.4-0.1,24.8-0.1,37.2,0
		c5.6,0.1,9.1,3.1,9,7.5c-0.1,4.4-3.5,7.2-9.2,7.3C380.6,389.9,374.4,389.8,368.2,389.8z"/>
	<path class="st0" d="M368.3,163.5c-6,0-12.1,0.1-18.1,0c-6-0.1-9.1-2.6-9.2-7.2c-0.1-4.8,3.1-7.6,9.3-7.6c12.2-0.1,24.5,0,36.7,0
		c3.6,0,6.8,0.9,8.4,4.7c1.3,2.9,0.5,5.4-1.4,7.7c-1.9,2.2-4.5,2.5-7.1,2.5C380.7,163.5,374.5,163.5,368.3,163.5z"/>
	<path class="st0" d="M368.5,140.7c-6.4,0-12.7,0.1-19.1,0c-5.5-0.1-8.4-2.9-8.4-7.4c0-4.3,2.9-7.2,8.1-7.3
		c12.9-0.2,25.8-0.2,38.6,0c5.1,0.1,8.5,3.5,8.3,7.7c-0.2,4.1-3.3,6.9-8.4,7C381.2,140.8,374.9,140.7,368.5,140.7z"/>
	<path class="st0" d="M368.5,186.1c-6.2,0-12.4,0.1-18.6,0c-5.8-0.1-8.9-2.9-8.9-7.5c0-4.7,3.1-7.2,9-7.3c12.2-0.1,24.5-0.1,36.7,0
		c5.8,0,9.1,2.7,9.3,7.2c0.1,4.6-3.4,7.5-9.4,7.6C380.6,186.2,374.6,186.1,368.5,186.1z"/>
	<path class="st0" d="M368.5,231.4c-6,0-12.1,0-18.1,0c-6.1-0.1-9.4-2.8-9.3-7.6c0.1-4.6,3.2-7.1,9.1-7.1c12.2,0,24.5,0,36.7,0
		c5.8,0,9.1,2.7,9.2,7.2c0.1,4.6-3.5,7.5-9.5,7.5C380.5,231.4,374.5,231.4,368.5,231.4z"/>
	<path class="st0" d="M368.5,239.3c6.4,0,12.7-0.1,19.1,0c5.3,0.1,8.6,3.1,8.5,7.4c-0.1,4.2-3.3,7.2-8.3,7.2
		c-12.9,0.1-25.8,0.1-38.6,0c-5,0-8.1-3-8.1-7.3c-0.1-4.5,3.1-7.3,8.4-7.4C355.8,239.2,362.1,239.3,368.5,239.3z"/>
	<path class="st0" d="M368.2,299.2c-6.4,0-12.7,0.1-19.1,0c-5-0.1-8.1-2.9-8.1-7.2c-0.1-4.3,3-7.4,7.9-7.5c13-0.1,26.1-0.1,39.1,0
		c4.9,0.1,8.1,3.3,8,7.5c-0.1,4.2-3.3,7.1-8.3,7.2C381.2,299.3,374.7,299.2,368.2,299.2z"/>
	<path class="st0" d="M368.6,72.8c-6.4,0-12.7,0.1-19.1,0c-5.3-0.1-8.5-2.9-8.5-7.3c0-4.4,3.2-7.4,8.5-7.4c12.7-0.1,25.4-0.1,38.1,0
		c5.2,0,8.5,3.3,8.4,7.6c-0.2,4.2-3.3,7-8.4,7.1C381.3,72.9,374.9,72.8,368.6,72.8z"/>
	<path class="st0" d="M368.2,367.1c-6.2,0-12.4,0.1-18.6,0c-5.6-0.1-8.5-2.7-8.5-7.2c0-4.5,3-7.4,8.4-7.5c12.7-0.1,25.4-0.2,38.1,0
		c5.2,0.1,8.5,3.4,8.4,7.6c-0.1,4.3-3.4,7-8.8,7.1C380.9,367.2,374.5,367.1,368.2,367.1z"/>
	<path class="st0" d="M368.5,95.4c-6.4,0-12.7,0.1-19.1,0c-5.3-0.1-8.5-2.9-8.4-7.4c0-4.2,3.1-7.3,8.1-7.3c12.9-0.1,25.8-0.1,38.6,0
		c5.1,0.1,8.5,3.5,8.3,7.7c-0.2,4.2-3.4,6.9-8.4,7C381.2,95.5,374.9,95.4,368.5,95.4z"/>
	<path class="st0" d="M368.4,118.1c-6.4,0-12.7,0.1-19.1,0c-5.3-0.1-8.1-2.6-8.3-7c-0.2-4.5,2.8-7.7,8.1-7.7
		c12.9-0.2,25.8-0.2,38.6,0c5,0.1,8.1,3.2,8.2,7.3c0.1,4.3-3.2,7.3-8.5,7.4C381.1,118.2,374.8,118.1,368.4,118.1z"/>
	<path class="st0" d="M368.9,261.9c6.2,0,12.4-0.1,18.6,0c5.3,0.1,8.6,3,8.6,7.4c0,4.4-3.3,7.3-8.7,7.3c-12.7,0.1-25.4,0.1-38.1,0
		c-5,0-8.1-2.9-8.2-7.1c-0.1-4.5,3-7.5,8.3-7.6C355.8,261.8,362.3,261.9,368.9,261.9z"/>
	<path class="st0" d="M368.7,344.4c-6.5,0-13,0.1-19.6,0c-5.1-0.1-8-2.9-8.1-7.2c0-4.3,2.9-7.4,7.9-7.5c13-0.2,26.1-0.2,39.1,0
		c4.8,0.1,8,3.5,8,7.5c-0.1,4.1-3.3,7-8.3,7.1C381.4,344.5,375,344.4,368.7,344.4z"/>
	<path class="st0" d="M368.9,194c6.4,0,12.7-0.1,19.1,0c4.9,0.1,8.1,3.2,8.1,7.3c0,3.9-3.1,7.2-7.7,7.3c-13.2,0.2-26.4,0.2-39.6,0
		c-5-0.1-7.9-3.3-7.7-7.6c0.1-4.3,3-6.9,8.3-7C355.8,193.9,362.3,194,368.9,194z"/>
	<path class="st0" d="M368.5,321.8c-6.4,0-12.7,0.1-19.1,0c-5.3-0.1-8.5-2.9-8.4-7.4c0-4.3,3.1-7.3,8.1-7.3
		c12.9-0.1,25.8-0.1,38.6,0c5.2,0.1,8.5,3.4,8.3,7.7c-0.2,4.2-3.4,6.9-8.4,7C381.2,321.9,374.9,321.8,368.5,321.8z"/>
	<path class="st0" d="M420.8,148.4c3.2,0.2,6.5,0.2,9.7,0.6c3.7,0.6,5.7,3.2,5.8,6.8c0.1,3.9-1.9,6.7-5.9,7.2
		c-6.5,0.8-13,0.8-19.5,0c-3.8-0.5-5.7-3.2-5.8-6.8c-0.1-3.9,1.9-6.6,5.9-7.2C414.1,148.6,417.4,148.6,420.8,148.4z"/>
	<path class="st0" d="M420.7,140.5c-3.1,0-6.2,0.2-9.3-0.1c-4-0.3-6.2-3-6.3-6.8c-0.2-3.9,1.9-6.7,5.8-7.3c6.5-0.9,13-0.9,19.5,0
		c3.9,0.5,6,3.3,5.9,7.2c-0.1,4.1-2.6,6.7-6.7,7C426.5,140.8,423.6,140.6,420.7,140.5C420.7,140.6,420.7,140.5,420.7,140.5z"/>
	<path class="st0" d="M420.7,171.5c2.9,0,5.9-0.2,8.8,0c4.2,0.3,6.6,2.9,6.8,7c0.1,3.9-1.9,6.7-5.9,7.2c-6.5,0.9-13,0.9-19.5,0
		c-4-0.6-6-3.4-5.8-7.2c0.2-3.8,2.3-6.5,6.3-6.8C414.4,171.3,417.6,171.5,420.7,171.5C420.7,171.5,420.7,171.5,420.7,171.5z"/>
	<path class="st0" d="M420.7,216.7c2.9,0,5.9-0.2,8.8,0c4,0.3,6.3,2.7,6.7,6.6c0.4,3.9-1.6,6.9-5.5,7.5c-6.8,1-13.7,1.1-20.4-0.1
		c-3.7-0.6-5.5-3.6-5.3-7.2c0.2-3.8,2.4-6.4,6.4-6.8C414.5,216.5,417.6,216.8,420.7,216.7C420.7,216.7,420.7,216.7,420.7,216.7z"/>
	<path class="st0" d="M420.3,72.8c-2.8,0-5.6,0.1-8.3,0c-4.2-0.3-6.7-2.7-7-6.8c-0.3-4.2,2.1-7.2,6.1-7.5c6.3-0.5,12.7-0.5,19,0
		c4,0.3,6.4,3.4,6,7.6c-0.3,4.1-2.9,6.5-7.1,6.7C426.2,72.9,423.3,72.8,420.3,72.8z"/>
	<path class="st0" d="M420.5,344.3c-2.9,0-5.9,0.2-8.8,0c-4-0.3-6.3-2.8-6.6-6.6c-0.3-3.9,1.6-6.8,5.5-7.5c6.6-1.1,13.3-1,19.9,0
		c3.9,0.6,6,3.5,5.7,7.4c-0.3,4.1-2.7,6.6-6.9,6.8C426.3,344.5,423.4,344.3,420.5,344.3C420.5,344.3,420.5,344.3,420.5,344.3z"/>
	<path class="st0" d="M420.3,95.3c-2.9,0-5.9,0.2-8.8-0.1c-4-0.4-6.2-2.9-6.4-6.8c-0.2-3.7,1.6-6.6,5.2-7.2
		c6.8-1.2,13.6-1.1,20.4-0.1c3.9,0.6,5.9,3.6,5.5,7.5c-0.3,3.8-2.7,6.3-6.6,6.6C426.5,95.5,423.4,95.3,420.3,95.3
		C420.3,95.3,420.3,95.3,420.3,95.3z"/>
	<path class="st0" d="M420.5,117.9c-2.9,0-5.9,0.2-8.8,0c-4-0.3-6.3-2.8-6.6-6.6c-0.3-3.9,1.6-6.8,5.5-7.5c6.6-1.1,13.3-1,19.9,0
		c3.9,0.6,6,3.5,5.7,7.4c-0.3,4.1-2.7,6.6-6.9,6.8C426.3,118.1,423.4,118,420.5,117.9C420.5,118,420.5,118,420.5,117.9z"/>
	<path class="st0" d="M420.4,321.7c-2.8,0-5.5,0.1-8.3,0c-4.2-0.2-6.7-2.6-7-6.7c-0.3-3.9,1.7-6.9,5.6-7.5c6.6-1,13.3-1,19.9,0
		c3.9,0.6,5.9,3.5,5.6,7.4c-0.3,4.1-2.8,6.5-7,6.8C426.3,321.9,423.3,321.7,420.4,321.7z"/>
	<path class="st0" d="M420.9,194.1c2.9,0,5.9-0.2,8.8,0c4,0.3,6.2,2.9,6.5,6.7c0.3,3.9-1.7,6.8-5.6,7.4c-6.6,1-13.3,1-19.9,0
		c-3.9-0.6-5.9-3.6-5.6-7.4c0.3-3.8,2.6-6.4,6.6-6.6C414.7,193.9,417.8,194.1,420.9,194.1z"/>
	<path class="st0" d="M420.4,366.9c-2.9,0-5.9,0.2-8.8,0c-4-0.3-6.3-2.8-6.6-6.6c-0.3-3.9,1.6-6.8,5.5-7.5c6.6-1.1,13.3-1,19.9,0
		c3.9,0.6,5.9,3.5,5.7,7.4c-0.2,3.8-2.5,6.4-6.5,6.7C426.6,367.1,423.5,366.9,420.4,366.9C420.4,366.9,420.4,366.9,420.4,366.9z"/>
	<path class="st0" d="M420.4,276.5c-2.8,0-5.6,0.2-8.3,0c-4.2-0.3-7.1-3.4-7.1-7.3c0-3.9,2.9-7.1,7.1-7.3c5.7-0.2,11.4-0.2,17.1,0
		c4.2,0.2,7.1,3.4,7.1,7.3c0,3.8-2.9,7-7.1,7.3C426.3,276.7,423.3,276.5,420.4,276.5z"/>
	<path class="st0" d="M421.1,239.3c2.8,0,5.6-0.2,8.3,0c4.1,0.4,6.7,2.8,6.8,6.9c0.2,4.2-2.2,7.1-6.3,7.4c-6.2,0.5-12.4,0.5-18.5,0
		c-4-0.3-6.3-3.2-6.4-7.4c0-3.9,3-6.7,7.3-7.1c0.3,0,0.7,0,1,0C415.9,239.3,418.5,239.3,421.1,239.3
		C421.1,239.3,421.1,239.3,421.1,239.3z"/>
	<path class="st0" d="M420.2,299.1c-2.8,0-5.6,0.2-8.3,0c-4.1-0.3-6.7-2.8-6.9-6.9c-0.2-4.2,2.2-7.1,6.2-7.5
		c6.2-0.5,12.4-0.5,18.5,0c4,0.3,6.4,3.1,6.5,7.3c0.1,3.8-3,6.9-7.2,7.1C426.1,299.3,423.2,299.1,420.2,299.1
		C420.2,299.1,420.2,299.1,420.2,299.1z"/>
	<path class="st0" d="M316,95.3c-2.9,0-5.9,0.2-8.8-0.1c-3.7-0.3-5.9-2.5-6.3-6.3c-0.4-3.9,1.2-7,5.1-7.7c6.7-1.2,13.6-1.1,20.4-0.1
		c3.9,0.6,5.8,3.6,5.5,7.5c-0.3,3.9-2.6,6.3-6.6,6.6C322.2,95.5,319.1,95.3,316,95.3C316,95.3,316,95.3,316,95.3z"/>
	<path class="st0" d="M315.9,72.8c-2.8,0-5.6,0.2-8.3,0c-4.1-0.3-6.6-2.7-6.8-6.9c-0.2-4.2,2.1-7.1,6.1-7.5
		c6.1-0.5,12.4-0.5,18.5-0.1c4,0.3,6.3,3.2,6.4,7.3c0.1,3.9-2.9,6.8-7.2,7.1C321.8,72.9,318.9,72.8,315.9,72.8
		C315.9,72.8,315.9,72.8,315.9,72.8z"/>
	<path class="st0" d="M231.8,189.9c0,1.8,0.1,3.6,0,5.3c-0.4,4.3-2.7,6.9-7.2,7c-4.2,0.1-6.6-2.3-7.2-6.4c-0.6-3.9-0.6-7.8,0-11.6
		c0.6-4.3,3.3-6.8,7.6-6.6c4.1,0.2,6.4,2.8,6.8,6.9C231.9,186.4,231.8,188.2,231.8,189.9z"/>
	<path class="st0" d="M280.1,190.1c0-1.8-0.1-3.6,0-5.3c0.4-4.3,2.8-7,7.1-7.1c4.4-0.1,6.9,2.6,7.3,6.9c0.3,3.7,0.3,7.5-0.1,11.1
		c-0.4,4.3-3.1,6.7-7.5,6.5c-4.2-0.2-6.4-2.7-6.8-6.8C280,193.7,280.2,191.9,280.1,190.1C280.2,190.1,280.2,190.1,280.1,190.1z"/>
	<path class="st0" d="M280,354c0.1-1.8,0.1-3.7,0.3-5.7c0.5-3.9,2.8-6.1,6.8-6.3c3.9-0.2,6.5,1.7,7.3,5.6c0.9,4.3,0.8,8.7,0,13
		c-0.7,3.9-3.3,6-7.2,5.9c-4.1-0.1-6.6-2.5-7-6.6C280,358.1,280,356.1,280,354z"/>
	<path class="st0" d="M232.1,354.5c-0.2,2.1-0.1,4.2-0.5,6.3c-0.6,3.7-3.1,5.7-6.7,5.8c-3.6,0.2-6.3-1.7-7.2-5.3
		c-1.1-4.3-0.8-8.7-0.2-13c0.6-4.1,3.1-6.4,7.3-6.3c4.2,0.1,6.5,2.5,7,6.6c0.2,1.9,0,3.9,0,5.8C231.9,354.5,232,354.5,232.1,354.5z"
		/>
	<path class="st0" d="M295,321.8c-0.2,2-0.2,4.3-0.7,6.5c-0.8,3.7-3.5,5.5-7.1,5.4c-3.7-0.1-6.2-2.1-6.8-5.8
		c-0.7-4-0.5-8.1-0.1-12.2c0.4-4.2,3.1-6.6,7.1-6.6c3.8,0,6.5,2.1,7.1,6.1C294.8,317.3,294.8,319.4,295,321.8z"/>
	<path class="st0" d="M280,255.7c0.1-2,0.1-3.9,0.3-5.9c0.4-4,2.9-6.3,6.8-6.5c4.1-0.2,6.8,2,7.5,6.2c0.7,4,0.6,8.1,0,12.2
		c-0.6,4.2-3.3,6.4-7.5,6.2c-4.2-0.2-6.5-2.7-6.9-6.9c-0.2-1.8,0-3.6,0-5.4C280.1,255.7,280,255.7,280,255.7z"/>
	<path class="st0" d="M232,223.5c-0.1,1.6-0.1,3.8-0.5,5.8c-0.6,3.8-3.2,5.7-6.8,5.9c-3.6,0.1-6.3-1.8-7.1-5.4
		c-1-4.3-0.8-8.8-0.2-13.1c0.6-4,3.2-6.1,7.1-6c4.2,0,6.7,2.3,7.1,6.5C231.9,219.1,231.9,221.1,232,223.5z"/>
	<path class="st0" d="M232.1,321.4c-0.1,2.1-0.1,4.2-0.5,6.3c-0.6,3.8-3,5.8-6.7,5.9c-3.9,0.2-6.6-1.7-7.4-5.7
		c-0.8-4.2-0.7-8.4-0.1-12.6c0.6-4.2,3.4-6.4,7.4-6.2c4.1,0.2,6.5,2.7,6.9,6.9c0.1,1.8,0,3.6,0,5.4
		C231.9,321.4,232,321.4,232.1,321.4z"/>
	<path class="st0" d="M232.1,288.5c-0.1,2.1-0.1,4.2-0.4,6.3c-0.5,3.8-3.1,5.8-6.6,6c-3.8,0.2-6.6-1.8-7.4-5.7
		c-0.9-4.2-0.7-8.4-0.1-12.7c0.6-4.2,3.2-6.4,7.4-6.2c4.2,0.2,6.5,2.7,6.9,6.8c0.2,1.8,0,3.6,0,5.4
		C231.9,288.5,232,288.5,232.1,288.5z"/>
	<path class="st0" d="M279.9,288.4c0.1-2,0.1-4,0.4-5.9c0.6-4,3.1-6,7-6.1c3.7-0.1,6.3,1.8,7,5.5c0.9,4.4,0.8,8.8,0.1,13.1
		c-0.7,3.9-3.4,6.1-7.2,5.9c-3.8-0.1-6.4-2.3-6.9-6.3C280,292.5,280,290.4,279.9,288.4z"/>
	<path class="st0" d="M279.9,222.9c0.2-2.3,0.1-4.6,0.6-6.8c0.6-3.5,3.1-5.3,6.5-5.5c3.7-0.2,6.4,1.5,7.3,5.2
		c1.1,4.3,0.8,8.8,0.2,13.1c-0.6,4.2-3.3,6.5-7.4,6.3c-4-0.2-6.6-2.7-6.9-6.9c-0.2-1.8,0-3.6,0-5.4
		C280.1,222.9,280,222.9,279.9,222.9z"/>
	<path class="st0" d="M232,256.4c-0.1,1.6-0.1,3.7-0.5,5.8c-0.7,3.7-3.1,5.7-6.8,5.7c-3.7,0.1-6.3-1.7-7.1-5.4
		c-0.9-4.3-0.8-8.8-0.1-13.1c0.6-4,3.3-6.1,7.1-6c4.1,0.1,6.6,2.4,7.1,6.6C231.9,252,231.9,253.9,232,256.4z"/>
	<path class="st0" d="M315.6,387.3c0,1.9,0.3,3.9-0.1,5.8c-0.7,4-3.3,6.3-7.3,6.4c-3.9,0.1-6.9-2.9-7.1-7.1c-0.2-3.4-0.2-6.8,0-10.2
		c0.2-4.5,3.4-7.6,7.4-7.5c3.8,0.1,6.8,3,7.2,7.2C315.8,383.7,315.7,385.5,315.6,387.3C315.7,387.3,315.7,387.3,315.6,387.3z"/>
	<path class="st0" d="M273.7,256c0,1.8,0.1,3.6,0,5.4c-0.4,3.7-2.4,6-6.1,6.5c-3.9,0.5-6.9-1.1-7.9-4.9c-1.2-4.8-1.2-9.7,0-14.5
		c0.9-3.6,3.8-5.4,7.4-5c3.6,0.3,6,2.5,6.5,6.2C273.8,251.7,273.6,253.9,273.7,256C273.6,256,273.7,256,273.7,256z"/>
	<path class="st0" d="M210.9,387.4c0,1.8,0.2,3.6,0,5.3c-0.5,4.1-3,6.5-7,6.7c-4.1,0.1-6.9-2.2-7.4-6.3c-0.5-3.8-0.4-7.8-0.1-11.7
		c0.3-4.1,3.7-7,7.5-6.8c3.8,0.2,6.7,3.1,7,7.4C211,383.9,210.9,385.6,210.9,387.4C210.9,387.4,210.9,387.4,210.9,387.4z"/>
	<path class="st0" d="M238.3,255.5c0-2-0.2-3.9,0-5.9c0.5-3.7,2.9-5.9,6.5-6.2c3.6-0.3,6.5,1.4,7.4,5.1c1.2,4.8,1.2,9.7,0,14.5
		c-0.9,3.6-3.7,5.3-7.4,5c-3.7-0.3-6-2.5-6.5-6.1C238.1,259.7,238.3,257.6,238.3,255.5z"/>
	<path class="st0" d="M238.3,288.7c0-2-0.2-3.9,0-5.9c0.4-3.9,2.7-6.2,6.7-6.5c4-0.3,6.7,1.7,7.5,5.5c0.9,4.5,1,9.1-0.1,13.6
		c-0.9,3.8-3.7,5.8-7.6,5.4c-3.8-0.4-6.2-2.8-6.5-6.8C238.2,292.3,238.3,290.5,238.3,288.7C238.3,288.7,238.3,288.7,238.3,288.7z"/>
	<path class="st0" d="M273.7,288.8c0,1.8,0.1,3.6,0,5.4c-0.3,4-2.7,6.3-6.6,6.7c-3.9,0.4-6.7-1.6-7.6-5.5c-1-4.5-1-9.1,0-13.6
		c0.8-3.8,3.6-5.8,7.5-5.5c4,0.3,6.2,2.6,6.6,6.5C273.8,284.8,273.7,286.8,273.7,288.8C273.7,288.8,273.7,288.8,273.7,288.8z"/>
	<path class="st0" d="M238.3,189.8c0-1.9-0.2-3.9,0-5.8c0.4-3.7,2.8-5.9,6.3-6.3c3.9-0.4,6.8,1.4,7.7,5.2c1.1,4.6,1,9.4,0.1,14
		c-0.8,3.8-3.6,5.7-7.6,5.3c-3.9-0.3-6.1-2.7-6.5-6.6C238.1,193.7,238.3,191.8,238.3,189.8C238.3,189.8,238.3,189.8,238.3,189.8z"/>
	<path class="st0" d="M273.7,190.2c0,1.8,0.1,3.6,0,5.3c-0.4,3.9-2.5,6.2-6.5,6.6c-3.9,0.4-6.8-1.4-7.6-5.2c-1.1-4.6-1-9.4,0-14
		c0.9-3.8,3.8-5.7,7.6-5.3c3.8,0.4,6.2,2.8,6.5,6.7C273.8,186.3,273.7,188.3,273.7,190.2z"/>
	<path class="st0" d="M301.1,321.1c0-1.8-0.2-3.6,0-5.4c0.5-4.2,3.2-6.6,7.2-6.6c3.8,0,6.7,2.3,7.1,6.1c0.5,4,0.5,8.2,0,12.2
		c-0.5,4-3.2,6.4-7.4,6.3c-4.1-0.2-6.6-2.6-7-6.8C300.9,325,301.1,323,301.1,321.1C301.1,321.1,301.1,321.1,301.1,321.1z"/>
	<path class="st0" d="M253.1,354.6c-0.2,2.1-0.1,4.2-0.6,6.3c-0.9,3.8-3.5,6-7.3,5.7c-4.1-0.2-6.6-2.7-6.9-6.8
		c-0.2-3.6-0.2-7.1,0-10.7c0.2-4.1,2.4-6.6,6.6-7.1c4.1-0.4,7.2,2,7.9,6.3c0.3,2,0.1,4.2,0.1,6.3C252.9,354.6,253,354.6,253.1,354.6
		z"/>
	<path class="st0" d="M273.7,354.3c0,1.9,0.2,3.9,0,5.8c-0.4,3.9-2.8,6.2-6.7,6.5c-3.6,0.3-6.4-1.5-7.3-5.1c-1.2-4.8-1.2-9.7,0-14.4
		c0.9-3.8,3.9-5.5,7.8-5c3.7,0.4,5.8,2.7,6.2,6.3C273.8,350.4,273.6,352.3,273.7,354.3z"/>
	<path class="st0" d="M210.9,321.6c0,1.8,0.2,3.6,0,5.4c-0.5,4.1-2.9,6.6-7.1,6.7c-4.2,0.1-6.9-2.3-7.4-6.4
		c-0.4-3.5-0.3-7.2-0.1-10.8c0.2-4.6,3.4-7.6,7.4-7.6c4,0,7,3.2,7.2,7.7C211,318.4,210.9,320,210.9,321.6
		C210.9,321.6,210.9,321.6,210.9,321.6z"/>
	<path class="st0" d="M301.1,288.3c0-1.8-0.2-3.6,0-5.4c0.5-3.9,2.7-6.3,6.7-6.5c4.2-0.3,7.1,1.9,7.6,5.9c0.5,4.2,0.5,8.5,0,12.7
		c-0.5,3.8-3.3,6.1-7.2,6c-4.1-0.1-6.6-2.6-7.1-6.8C300.9,292.2,301.1,290.2,301.1,288.3C301.1,288.3,301.1,288.3,301.1,288.3z"/>
	<path class="st0" d="M210.9,288.6c0,1.8,0.1,3.6,0,5.4c-0.4,4.2-2.8,6.7-6.9,7c-4.1,0.2-7-2.2-7.5-6.2c-0.5-4-0.5-8.2,0-12.2
		c0.5-4,3.3-6.4,7.5-6.2c4.2,0.2,6.5,2.7,6.9,6.8C211,285,210.9,286.8,210.9,288.6z"/>
	<path class="st0" d="M301.1,222.7c0-1.8-0.2-3.6,0-5.4c0.5-4.1,2.9-6.6,7.1-6.7c4.2-0.1,6.9,2.3,7.4,6.4c0.4,3.5,0.3,7.2,0.1,10.8
		c-0.2,4.5-3.4,7.6-7.4,7.6c-4-0.1-7-3.2-7.2-7.8C300.9,225.9,301,224.3,301.1,222.7C301,222.7,301.1,222.7,301.1,222.7z"/>
	<path class="st0" d="M301.1,255.7c0-1.8-0.1-3.6,0-5.4c0.4-4.2,2.8-6.7,6.9-6.9c4.1-0.2,7,2.2,7.5,6.2c0.5,4,0.5,8.2,0,12.2
		c-0.5,4-3.3,6.4-7.5,6.1c-4.2-0.2-6.5-2.8-6.9-6.9C300.9,259.3,301.1,257.5,301.1,255.7z"/>
	<path class="st0" d="M210.9,255.7c0,1.8,0.2,3.6,0,5.4c-0.4,4.1-2.7,6.6-6.9,6.9c-4,0.3-7.2-2.4-7.6-6.7c-0.3-3.6-0.3-7.2-0.1-10.8
		c0.3-4.3,3.4-7.2,7.2-7.3c4-0.1,7.1,3,7.4,7.5C211,252.5,210.9,254.1,210.9,255.7C210.9,255.7,210.9,255.7,210.9,255.7z"/>
	<path class="st0" d="M210.9,222.8c0,1.8,0.1,3.6,0,5.4c-0.4,4.2-2.8,6.7-6.9,7c-4.1,0.3-7-2.1-7.5-6.2c-0.5-4-0.5-8.2,0-12.2
		c0.5-4,3.3-6.4,7.5-6.2c4.2,0.2,6.5,2.7,6.9,6.8C211,219.2,210.9,221,210.9,222.8z"/>
	<path class="st0" d="M210.9,189.9c0,1.8,0.1,3.6,0,5.4c-0.4,4.3-3.3,7.1-7.2,7.1c-4.2-0.1-6.8-2.5-7.2-6.5
		c-0.4-3.7-0.3-7.5-0.1-11.2c0.3-4.2,3.6-7,7.5-6.9c3.9,0.1,6.7,3,7.1,7.3C211,186.6,210.9,188.2,210.9,189.9z"/>
	<path class="st0" d="M210.9,354.8c0,1.6,0.1,3.3,0,4.9c-0.4,4.1-2.8,6.7-6.9,6.9c-4.2,0.2-7-2.2-7.5-6.2c-0.5-4-0.5-8.2,0-12.2
		c0.5-4,3.2-6.4,7.5-6.2c4.2,0.2,6.5,2.8,6.9,6.9C211.1,350.8,210.9,352.8,210.9,354.8z"/>
	<path class="st0" d="M301.1,354.1c0-1.8-0.2-3.6,0-5.4c0.5-4.1,2.8-6.6,7-6.7c4.3-0.1,6.8,2.3,7.4,6.3c0.5,3.5,0.3,7.2,0.1,10.8
		c-0.2,4.6-3.4,7.6-7.4,7.6c-4,0-7-3.1-7.2-7.7C300.9,357.4,301,355.7,301.1,354.1C301,354.1,301.1,354.1,301.1,354.1z"/>
	<path class="st0" d="M210.8,420.1c0,2,0.2,4-0.1,5.9c-0.6,3.9-3,6.2-6.9,6.4c-4,0.2-6.8-2-7.3-5.8c-0.6-4.2-0.6-8.5-0.1-12.7
		c0.5-4,3.3-6.3,7.6-6.1c4,0.2,6.2,2.7,6.7,6.5C211.1,416.2,210.9,418.2,210.8,420.1C210.9,420.1,210.8,420.1,210.8,420.1z"/>
	<path class="st0" d="M315.9,420.3c-0.1,2.1,0,4.3-0.4,6.3c-0.9,3.8-3.4,6-7.4,5.8c-3.9-0.2-6.4-2.6-6.8-6.4
		c-0.4-3.7-0.3-7.5-0.1-11.3c0.3-4.1,2.6-6.6,6.8-6.9c4-0.3,7.1,2.4,7.6,6.6c0.2,1.9,0,3.9,0,5.9
		C315.7,420.3,315.8,420.3,315.9,420.3z"/>
	<path class="st0" d="M301.1,189.7c0-1.8-0.2-3.6,0-5.4c0.5-4.1,3-6.6,7.2-6.6c3.9-0.1,6.7,2.2,7.2,6.1c0.5,4.2,0.5,8.5,0,12.7
		c-0.6,4-3.5,6.2-7.7,5.8c-4-0.3-6.1-2.8-6.6-6.7C300.9,193.6,301.1,191.7,301.1,189.7z"/>
	<path class="st0" d="M253.1,322c-0.2,1.9-0.1,4.1-0.6,6.1c-0.9,3.8-3.5,5.9-7.5,5.6c-3.9-0.3-6.4-2.5-6.7-6.5
		c-0.3-3.7-0.2-7.5,0-11.3c0.2-4.2,2.9-6.6,6.9-6.8c3.9-0.2,6.5,2,7.3,5.9C253,317.2,252.9,319.5,253.1,322z"/>
	<path class="st0" d="M273.6,321.6c0,2,0.2,3.9,0,5.9c-0.5,3.7-2.8,5.9-6.5,6.2c-3.7,0.3-6.5-1.3-7.5-4.9c-1.2-4.8-1.2-9.7,0-14.5
		c0.9-3.6,3.7-5.4,7.3-5.1c3.8,0.3,6.3,2.6,6.7,6.6C273.8,317.7,273.7,319.7,273.6,321.6C273.7,321.6,273.6,321.6,273.6,321.6z"/>
	<path class="st0" d="M273.7,222.7c0,2,0.1,3.9,0,5.9c-0.4,4-2.9,6.3-6.7,6.6c-3.9,0.3-6.7-1.7-7.5-5.6c-0.9-4.5-1-9.1,0-13.6
		c0.9-3.8,3.7-5.7,7.6-5.4c3.9,0.4,6.2,2.7,6.5,6.7C273.8,219.1,273.7,220.9,273.7,222.7z"/>
	<path class="st0" d="M238.3,222.9c0-2-0.2-3.9,0-5.9c0.4-3.7,2.5-6,6.2-6.4c3.9-0.5,6.8,1.2,7.8,5.1c1.1,4.6,1.1,9.4,0,14.1
		c-0.9,3.8-3.8,5.8-7.7,5.3c-3.8-0.4-6.2-2.8-6.5-6.8C238.2,226.5,238.3,224.7,238.3,222.9C238.3,222.9,238.3,222.9,238.3,222.9z"/>
	<path class="st0" d="M142,335.9c0,32.7,0,65.3,0,98c0,1.3,0.1,2.6,0,3.9c-0.4,5-3.2,8.2-7.3,8.3c-4.3,0.1-7.3-3.1-7.6-8.4
		c-0.1-1.3,0-2.6,0-3.9c0-65.5,0-131,0-196.5c0-2.1,0.1-4.3,0.4-6.3c0.6-3.8,3.2-5.7,6.8-5.8c3.6-0.1,6.3,1.7,7.1,5.4
		c0.4,2.1,0.5,4.2,0.5,6.3C142,269.9,142,302.9,142,335.9z"/>
	<path class="st0" d="M164.9,335.9c0,33,0,65.9,0,98.9c0,1.5,0.1,3-0.1,4.4c-0.5,4.1-2.9,6.7-7.1,6.8c-4.1,0.1-6.7-2.4-7.4-6.4
		c-0.3-1.4-0.2-2.9-0.2-4.4c0-66.4,0-132.9,0-199.3c0-1.5-0.1-3,0.2-4.4c0.8-4,3.4-6.4,7.5-6.3c3.9,0.1,6.3,2.5,6.9,6.3
		c0.3,1.6,0.1,3.3,0.1,4.9C164.9,269.6,164.9,302.7,164.9,335.9z"/>
</g>
</svg>
