<?xml version="1.0" encoding="utf-8"?>
<!-- Generator: Adobe Illustrator 19.0.0, SVG Export Plug-In . SVG Version: 6.00 Build 0)  -->
<svg version="1.1" id="Layer_1" xmlns="http://www.w3.org/2000/svg" xmlns:xlink="http://www.w3.org/1999/xlink" x="0px" y="0px"
	 viewBox="0 0 512 512" style="enable-background:new 0 0 512 512;" xml:space="preserve">
<style type="text/css">
	.st0{fill:#FFFFFF;}
</style>
<g>
	<path class="st0" d="M263.4,5c14.9,12.8,29.9,25.5,44.7,38.3c17.6,15.2,35.1,30.5,53.1,46.3c0-9.1,0-17.6,0-26.6
		c-4.6,0-9.1,0.1-13.7,0c-8.8-0.2-15.3-6.3-15.4-14.6c-0.1-8.4,6.4-14.8,15.5-14.9c38.8-0.1,77.6-0.1,116.4,0
		c8.8,0,15.3,6.3,15.3,14.6c0.1,8.4-6.4,14.7-15.6,14.9c-4.4,0.1-8.8,0-13.6,0c-0.1,1.8-0.2,3.4-0.2,5c0,31.6,0,63.2-0.1,94.8
		c0,3.1,0.9,5.1,3.2,7.1c16.4,14.1,32.6,28.3,48.9,42.5c7.9,6.9,8.6,16.3,1.7,24.1c-11.7,13.5-23.6,26.8-35.2,40.3
		c-4.9,5.7-10.5,8.7-18.6,6.4c0,2.3,0,4.2,0,6.1c0,66.3,0,132.6,0,198.9c0,13.6-5.1,18.8-18.6,18.8c-115.9,0-231.8,0-347.8,0
		c-13.6,0-18.8-5.1-18.8-18.6c0-66.3,0-132.6,0-198.9c0-1.9,0-3.9,0-6.3c-8.4,2.5-14.1-1.1-19.1-7c-11.5-13.4-23.3-26.6-34.9-40
		c-7.2-8.3-6.7-16.4,1.5-23.6c78-68,156-136,234-203.9c1.6-1.4,3.4-2.5,5.1-3.8C255.5,5,259.5,5,263.4,5z M94.4,477.2
		c109,0,217.5,0,326.2,0c0-2.3,0-4.2,0-6.2c0-68.9,0-137.8,0.1-206.8c0-4.2-1.3-6.9-4.4-9.5c-40.7-35.3-81.3-70.7-121.9-106
		c-12.2-10.6-24.4-21.2-36.8-32c-1.1,0.9-2,1.6-2.8,2.3c-52.4,45.6-104.7,91.2-157.1,136.6c-2.5,2.2-3.3,4.4-3.3,7.6
		c0.1,69.4,0.1,138.8,0.1,208.2C94.4,473.3,94.4,475.1,94.4,477.2z M60.8,248.5c1.5-1.2,2.6-2,3.7-3
		C124.9,193,185.3,140.5,245.6,87.9c8.5-7.4,15.3-7.4,23.9,0.1c58,50.5,116,101,174,151.5c3.4,3,6.9,5.9,10.5,9.1
		c6.6-7.6,12.9-14.7,19.4-22.1c-72.2-62.9-144-125.5-216-188.2c-72.1,62.8-143.9,125.3-215.9,188.2
		C48.1,233.9,54.4,241.1,60.8,248.5z M420.3,141c0-26.6,0-52.2,0-77.6c-9.9,0-19.4,0-29.1,0c0,16.9,0,33.4,0.1,49.9
		c0,1.2,0.4,2.7,1.3,3.4C401.5,124.7,410.6,132.6,420.3,141z"/>
	<path class="st0" d="M257.7,195.6c9.3,0,18.7-0.1,28,0c9.9,0.1,15.9,6,16,15.9c0.1,6.9,0,13.8,0.1,20.6c0,1.2,0.2,3,0.9,3.5
		c4.3,2.7,8.8,5.1,13.3,7.3c0.8,0.4,2.4-0.5,3.5-1.1c6-3.4,11.9-6.9,17.9-10.2c8.9-4.9,16.7-3,21.8,5.7
		c9.5,16.2,18.9,32.5,28.2,48.9c5.1,9,3,16.7-6,22.1c-5.6,3.3-11.4,6.4-16.9,9.9c-1.4,0.9-2.5,3.1-2.9,4.8c-2,10.1,1.6,17,11.7,20.5
		c3.6,1.3,6.9,3.7,10.2,5.9c6.4,4.4,8.7,11.8,4.9,18.5c-9.9,17.7-20,35.3-30.4,52.7c-4.2,7.1-12.2,8.6-19.8,4.5
		c-6.3-3.4-12.5-7.2-18.7-10.7c-4.3-2.4-17.7,5.4-17.7,10.4c0,6.5,0,13.1,0,19.6c-0.1,10.3-5.9,16.3-16.1,16.3
		c-18.8,0.1-37.7,0.1-56.5,0c-9.9,0-15.8-6.1-15.9-16c-0.1-6.9,0.1-13.8-0.1-20.6c-0.1-1.5-1.3-3.4-2.6-4.5
		c-7.7-6.9-15.5-6.9-23.6-0.2c-3.2,2.7-7.3,4.4-11.1,6.2c-7.4,3.6-15,1.7-19.2-5.4c-10.1-17-20-34.2-29.7-51.4
		c-4.2-7.6-1.9-15.4,5.5-20c6-3.7,12.2-6.9,18.2-10.7c1.4-0.9,2.5-3.1,2.8-4.8c2.1-10.1-1.7-17-11.7-20.5c-3.5-1.2-6.6-3.5-9.8-5.6
		c-6.8-4.5-9.1-12.1-5.1-19.3c9.8-17.6,19.9-35,30.2-52.2c4.1-6.9,11.9-8.6,19.4-4.7c6.4,3.3,12.7,6.8,18.8,10.5
		c2.9,1.8,5.3,1.9,7.8-0.4c0.4-0.3,0.8-0.6,1.2-0.8c8.7-2.4,9.9-8.8,9.1-16.5c-0.5-4.2-0.2-8.5-0.1-12.8c0.2-9.3,6.1-15.2,15.4-15.5
		c0.3,0,0.7,0,1,0C239.1,195.6,248.4,195.6,257.7,195.6z M159.8,289.4c5.5,3.2,10.5,6.2,15.6,9.1c6.8,3.8,9.3,9.3,8.7,17.1
		c-0.6,8.4-0.6,16.9,0,25.4c0.6,7.8-2,13.3-8.7,17.1c-5.1,2.9-10.1,5.9-15.6,9c4.9,8.6,9.7,16.9,14.8,25.6c5.7-3.2,11.1-6,16.4-9.2
		c7.2-4.3,13.6-3.4,20.4,1.5c6.3,4.5,13.2,8.5,20.2,11.8c7.4,3.5,11.2,8.6,11,16.8c-0.1,5.8,0,11.7,0,17.6c10.1,0,19.6,0,29.1,0
		c0.2-0.6,0.3-0.9,0.3-1.3c0-5.2,0-10.5,0.1-15.7c0-9.7,3-13.5,11.8-17.7c7.2-3.4,14.2-7.3,20.8-11.8c6.7-4.6,13.1-5.3,20.1-1.1
		c5,3,10.1,5.9,15.6,9c5-8.6,9.8-16.9,14.7-25.5c-5.5-3.2-10.5-6.2-15.6-9.1c-6.8-3.8-9.3-9.3-8.7-17.1c0.6-8.4,0.6-16.9,0-25.4
		c-0.6-7.8,2-13.3,8.7-17.1c5.1-2.9,10.1-5.9,15.6-9c-4.9-8.6-9.7-16.9-14.7-25.5c-5.4,3.1-10.6,6-15.6,9c-6.8,4.1-13,3.6-19.6-0.8
		c-6.9-4.6-14.1-8.8-21.7-12.2c-7.9-3.6-11.6-9-11.3-17.5c0.2-5.7,0-11.3,0-16.9c-10.2,0-19.8,0-29.5,0c0,5.9-0.1,11.5,0,17.1
		c0.3,8.6-3.6,13.9-11.5,17.4c-6.8,3.1-13.4,6.9-19.4,11.3c-7.1,5.2-13.7,6.1-21.3,1.5c-5.1-3.1-10.5-5.9-16-8.9
		C169.6,272.5,164.8,280.8,159.8,289.4z"/>
	<path class="st0" d="M302.4,329.5c-0.1,24.5-20.4,44.8-44.8,44.8c-24.6,0-45.2-20.8-44.9-45.2c0.3-24.6,20.8-44.7,45.1-44.5
		C282.2,284.7,302.5,305.1,302.4,329.5z M257.4,344.3c8.1,0.1,15-6.7,15.1-14.8c0.1-8.1-6.7-15-14.8-15.1c-8.1-0.1-15,6.7-15.1,14.8
		C242.5,337.4,249.2,344.2,257.4,344.3z"/>
	<path class="st0" d="M257.4,344.3c-8.1-0.1-14.9-6.9-14.8-15.1c0.1-8.1,6.9-14.9,15.1-14.8c8.1,0.1,14.9,6.9,14.8,15.1
		C272.4,337.7,265.5,344.4,257.4,344.3z"/>
</g>
</svg>
